<svg width="100" height="100" viewBox="0 0 100 100" fill="none" xmlns="http://www.w3.org/2000/svg">
<path fill-rule="evenodd" clip-rule="evenodd" d="M59.0728 52.5031L98.4114 63.0438L98.0918 64.2345L58.9844 53.7557L90.4851 66.715L90.0159 67.855L58.2863 54.8014L93.525 75.1462L92.9086 76.2138L57.8395 55.9669L84.9198 76.6429L84.172 77.6227L56.8948 56.7965L85.6718 85.574L84.8007 86.4451L56.1633 57.8083L76.9735 84.7941L75.9974 85.5469L55.0421 58.3731L75.3876 93.6129L74.3201 94.2292L54.0779 59.1683L67.1892 90.6075L66.0514 91.0817L53.3266 60.7901L63.6972 98.6292L62.5065 98.9481L52.2466 60.7901L56.8313 93.5693L55.6096 93.7337L51.1398 60.7901L50.7831 100.535H49.5504V60.0843L45.1837 93.8808L43.9611 93.723L48.2239 60.7901L37.4913 98.9489L36.3007 98.6292L46.6445 60.7901L34.1292 91.1598L32.9892 90.6914L46.0501 58.9435L25.6782 94.2284L24.6106 93.6121L44.741 58.3731L23.8901 85.4639L22.9103 84.716L42.9098 58.3731L15.1982 86.4451L14.3265 85.574L42.9098 56.9906L15.9442 77.7852L15.1914 76.8091L42.3965 55.8296L7.09024 76.2138L6.47387 75.1462L41.4676 54.9427L10.0529 68.0436L9.57839 66.9059L41.2896 53.6812L1.90626 64.2339L1.5872 63.0432L40.5854 52.5937L6.8819 57.1134L6.71806 55.8916L40.8208 51.3184H0V50.0857H40.3629L6.65039 45.7298L6.80835 44.5073L40.9158 48.9141L1.49982 38.3527L1.81887 37.162L40.7957 47.6058L9.37154 34.678L9.84055 33.538L41.6769 46.6353L6.30602 26.214L6.92237 25.1464L41.8623 45.319L14.8617 24.7038L15.6098 23.7239L42.9648 44.6098L14.0899 15.7349L14.9616 14.8632L43.4863 43.3881L22.7456 16.4924L23.7218 15.7396L44.741 42.9963L24.3202 7.62661L25.3878 7.01026L45.5651 41.9584L32.4868 10.598L33.6245 10.1236L47.1912 42.3341L36.6247 2.35589L37.8154 2.03684L48.5277 41.4291L44.0194 7.30463L45.2411 7.14079L49.5504 39.9711V0.535706H50.7831V39.7282L55.1353 7.23948L56.3579 7.39744L51.8687 40.9236L62.1825 2.03725L63.3732 2.3563L52.7799 42.3341L66.1663 10.0464L67.3063 10.5154L54.2161 42.3341L74.6104 7.01007L75.678 7.62642L55.635 41.9584L75.8293 15.4059L76.8091 16.1539L56.1817 43.3881L85.0373 14.8634L85.9085 15.7351L57.33 44.3137L84.246 23.5573L84.9987 24.5335L57.7733 45.5285L93.0763 25.1464L93.6926 26.2139L58.6775 46.4299L90.0627 33.3412L90.5369 34.479L58.8085 47.7108L98.1797 37.1614L98.4986 38.3521L59.4122 48.8253L93.1469 44.3014L93.3105 45.5232L59.288 50.0857H100V51.3184H59.5235L93.2916 55.6815L93.1338 56.904L59.0728 52.5031Z" fill="#C6983C" stroke="#C6983C" stroke-width="0.5"/>
</svg>
