<svg width="186" height="187" viewBox="0 0 186 187" fill="none" xmlns="http://www.w3.org/2000/svg">
<path d="M102.93 15.5765L107.139 16.1803C109.447 16.5114 111.093 16.0746 111.363 14.1931C111.627 12.3505 110.389 11.7373 109.112 11.5343L109.179 11.0688C109.963 11.1219 111.105 10.8898 111.333 9.29931C111.597 7.45666 110.112 6.76854 107.804 6.4374L104.313 5.93652L102.93 15.5765ZM105.291 10.1548L105.684 7.41989L107.623 7.69816C109.194 7.92355 109.904 8.22326 109.745 9.32885C109.55 10.6866 108.802 10.6584 107.231 10.433L105.291 10.1548ZM104.662 14.5383L105.11 11.4155L107.768 11.7967C109.319 12.0194 110.034 12.4188 109.839 13.7766C109.656 15.0567 108.871 15.1422 107.32 14.9195L104.662 14.5383Z" fill="white"/>
<path d="M119.027 13.521C118.074 16.177 119.028 18.9133 121.998 19.9784C123.769 20.6135 126.395 20.4312 127.587 17.8613L126.056 17.3122C125.169 18.9718 123.789 19.1636 122.461 18.6873C120.285 17.9067 119.858 15.9632 120.539 14.0635C121.214 12.1821 122.779 10.9532 124.955 11.7338C126.283 12.2101 127.227 13.2356 126.857 15.0804L128.387 15.6295C129.1 12.8875 127.189 11.0778 125.418 10.4427C122.449 9.37755 119.973 10.8834 119.027 13.521Z" fill="white"/>
<path d="M135.125 19.8603C133.65 22.2432 133.643 25.0493 136.609 26.8844C139.241 28.5133 141.344 27.3489 142.455 26.2617L141.088 25.4163C140.005 26.4972 138.676 26.5967 137.31 25.7513C135.26 24.4832 135.345 22.6695 136.231 21.0516L142.78 25.1033L143.11 24.57C144.687 22.0205 144.072 19.589 141.739 18.1456C139.389 16.692 136.774 17.1941 135.125 19.8603ZM136.87 20.0185C137.695 18.6854 139.394 18.2851 141.027 19.2954C142.677 20.3161 142.911 21.9123 142.086 23.2454L136.87 20.0185Z" fill="white"/>
<path d="M164.289 38.8942L160.584 42.0073L156.528 37.7883L160.533 34.4232L159.5 33.1929L155.464 36.5833C154.759 37.1756 154.676 37.8082 155.313 38.4756L159.533 42.8896L156.833 45.1583L157.866 46.3885L165.323 40.1245L164.289 38.8942Z" fill="white"/>
<path d="M174.531 55.0256L170.263 47.1533L169.057 47.807L170.813 51.0455L163.457 55.0333L164.223 56.4459L171.579 52.4581L173.325 55.6794L174.531 55.0256Z" fill="white"/>
<path d="M173.262 64.0163C170.54 64.8315 168.985 67.4246 169.879 70.4092C170.768 73.375 173.487 74.6675 176.208 73.8522C178.911 73.0426 180.472 70.4683 179.584 67.5025C178.69 64.5179 175.965 63.2066 173.262 64.0163ZM173.723 65.5555C175.657 64.9764 177.606 65.6811 178.27 67.896C178.928 70.0922 177.686 71.7527 175.753 72.3318C173.801 72.9165 171.851 72.2118 171.193 70.0156C170.53 67.8007 171.771 66.1402 173.723 65.5555Z" fill="white"/>
<path d="M181.302 98.3205L177.13 98.2302L177.248 92.7449L181.421 92.8352L181.456 91.2288L171.719 91.0181L171.685 92.6245L175.877 92.7152L175.758 98.2005L171.566 98.1098L171.532 99.6966L181.268 99.9073L181.302 98.3205Z" fill="white"/>
<path d="M178.447 117.031L171.766 112.317L171.041 112.147L171.149 111.689L171.874 111.859L179.956 110.623L180.36 108.906L170.001 110.835L167.56 110.26L168.536 106.886L167.201 106.572L166.167 110.193C165.917 111.081 166.257 111.604 166.982 111.774L169.633 112.399L178.047 118.729L178.447 117.031Z" fill="white"/>
<path d="M167.984 138.732L169.208 139.351L169.907 137.97C170.189 137.41 170.174 136.919 169.896 136.384L168.003 132.572L168.357 131.872L172.046 133.738L172.771 132.304L169.082 130.438L169.435 129.739L173.627 129.004C174.224 128.91 174.628 128.632 174.911 128.072L175.609 126.691L174.385 126.072L173.669 127.488L169.547 128.215L166.919 122.296L166.07 123.975L168.256 128.945C168.203 129.006 168.159 129.093 168.115 129.181L167.805 129.793L164.08 127.91L163.355 129.344L167.08 131.227L166.771 131.839C166.726 131.926 166.682 132.014 166.664 132.093L161.366 133.278L160.517 134.957L166.842 133.566L168.7 137.316L167.984 138.732Z" fill="white"/>
<path d="M159.318 152.511L156.139 149.806L159.695 145.627L162.874 148.332L163.915 147.108L156.498 140.797L155.456 142.021L158.65 144.739L155.095 148.917L151.901 146.2L150.873 147.409L158.29 153.72L159.318 152.511Z" fill="white"/>
<path d="M148.782 156.423C147.058 154.165 144.082 153.627 141.606 155.518C139.146 157.397 138.898 160.398 140.623 162.656C142.335 164.898 145.295 165.448 147.756 163.569C150.232 161.678 150.495 158.666 148.782 156.423ZM147.505 157.399C148.731 159.003 148.76 161.075 146.923 162.479C145.101 163.871 143.109 163.296 141.884 161.692C140.647 160.073 140.617 158 142.439 156.608C144.276 155.205 146.268 155.779 147.505 157.399Z" fill="white"/>
<path d="M113.011 171.224L114.247 170.843L116.711 178.839L123.078 176.877C121.947 173.206 121.617 170.806 122 168.454L123.235 168.073L122.07 164.29L120.534 164.763L121.296 167.235L114.143 169.44L113.381 166.968L111.845 167.441L113.011 171.224ZM120.464 168.927C120.132 170.977 120.351 173.083 121.157 176.033L117.843 177.055L115.783 170.37L120.464 168.927Z" fill="white"/>
<path d="M97.9378 181.745L104.927 181.146C104.456 175.641 104.194 172.811 106.088 172.649L105.971 171.283C102.788 171.555 102.772 174.585 103.209 179.917L99.4217 180.241L98.7079 171.904L97.1069 172.041L97.9378 181.745Z" fill="white"/>
<path d="M82.3088 180.991L85.3878 181.315C87.7847 181.568 89.2872 180.957 89.4943 178.989C89.6707 177.313 88.8132 176.474 87.2203 176.07L89.21 173.265L90.7884 173.431L90.9279 172.106L89.4858 171.954C88.8622 171.888 88.3658 172.112 88.0027 172.566L85.6696 175.828L84.4613 175.701L84.9063 171.472L83.3278 171.306L82.3088 180.991ZM84.3281 176.968L85.6922 177.111C87.2512 177.275 88.0194 177.652 87.8964 178.821C87.7734 179.99 86.9436 180.198 85.3846 180.034L84.0205 179.891L84.3281 176.968Z" fill="white"/>
<path d="M54.8232 172.495L62.9881 176.172L63.5514 174.922L60.1925 173.409L63.6287 165.78L62.1637 165.12L58.7275 172.749L55.3865 171.244L54.8232 172.495Z" fill="white"/>
<path d="M52.9762 160.352L49.509 157.89C47.6076 156.54 45.9437 156.176 44.8434 157.726C43.7659 159.244 44.5869 160.356 45.6301 161.12L45.3578 161.504C44.6847 161.098 43.5631 160.782 42.633 162.092C41.5554 163.61 42.5614 164.901 44.4628 166.251L47.3389 168.293L52.9762 160.352ZM48.3972 164.094L46.7979 166.347L45.2001 165.212C43.9059 164.294 43.4121 163.703 44.0587 162.792C44.8527 161.674 45.5052 162.041 46.7994 162.959L48.3972 164.094ZM50.9607 160.483L49.1345 163.055L46.9455 161.501C45.6673 160.594 45.2142 159.912 46.0082 158.793C46.7569 157.739 47.4934 158.021 48.7717 158.929L50.9607 160.483Z" fill="white"/>
<path d="M37.6913 154.82C39.7747 152.888 40.0271 149.875 37.9086 147.591C35.8035 145.321 32.7932 145.36 30.7099 147.291C28.6408 149.21 28.3752 152.209 30.4803 154.479C32.5987 156.764 35.6223 156.739 37.6913 154.82ZM36.5988 153.642C35.1189 155.014 33.0582 155.242 31.486 153.546C29.9272 151.865 30.3091 149.828 31.789 148.455C33.2833 147.07 35.344 146.842 36.9029 148.523C38.475 150.219 38.0931 152.257 36.5988 153.642Z" fill="white"/>
<path d="M25.9374 141.294C28.3491 139.867 29.6585 137.385 27.8828 134.383C26.3066 131.719 23.9035 131.774 22.4153 132.222L23.2333 133.605C24.6946 133.15 25.9179 133.679 26.7359 135.062C27.963 137.136 27.0458 138.703 25.5103 139.725L21.5898 133.097L21.0501 133.416C18.4697 134.943 17.8865 137.382 19.2831 139.743C20.6897 142.121 23.2389 142.89 25.9374 141.294ZM24.4647 140.344C23.1154 141.142 21.4244 140.708 20.4468 139.055C19.4592 137.385 19.993 135.863 21.3422 135.065L24.4647 140.344Z" fill="white"/>
<path d="M22.3989 124.088L21.8513 122.577L13.9852 125.429L12.2155 120.547L10.926 121.014L13.2433 127.407L22.3989 124.088Z" fill="white"/>
<path d="M13.6712 113.217C16.4773 112.772 18.3637 110.409 17.8749 107.332C17.3892 104.274 14.8664 102.631 12.0603 103.077C9.27366 103.519 7.38414 105.863 7.86985 108.921C8.35863 111.998 10.8845 113.66 13.6712 113.217ZM13.4191 111.63C11.4258 111.947 9.58725 110.989 9.22451 108.706C8.86483 106.441 10.3161 104.961 12.3093 104.644C14.322 104.325 16.1606 105.282 16.5203 107.547C16.883 109.83 15.4317 111.311 13.4191 111.63Z" fill="white"/>
<path d="M6.18395 77.8711L5.15613 85.8587L14.8151 87.1016L15.0202 85.508L6.72162 84.4402L7.33931 79.6398L15.6379 80.7076L15.843 79.114L6.18395 77.8711Z" fill="white"/>
<path d="M20.2966 63.4036L11.083 60.249L10.042 63.2893L17.4265 70.3949L17.2805 70.8213L16.4547 70.2692L8.57589 67.5717L8.05542 69.0919L17.269 72.2464L18.3163 69.1875L10.9503 62.0884L11.0963 61.662L11.8851 62.2013L19.7824 64.9052L20.2966 63.4036Z" fill="white"/>
<path d="M19.0001 44.9502L14.4595 52.6685L15.6418 53.364L17.5097 50.1888L24.7213 54.4314L25.536 53.0464L18.3244 48.8039L20.1824 45.6457L19.0001 44.9502Z" fill="white"/>
<path d="M27.3557 41.3977C29.4586 43.3084 32.4823 43.3023 34.5774 40.9963C36.6594 38.7049 36.3633 35.709 34.2604 33.7983C32.172 31.9008 29.1615 31.8924 27.0796 34.1839C24.9844 36.4898 25.2673 39.5002 27.3557 41.3977ZM28.4362 40.2085C26.9424 38.8513 26.5399 36.8176 28.0947 35.1062C29.6364 33.4094 31.6993 33.6158 33.1931 34.973C34.7014 36.3434 35.104 38.3771 33.5622 40.0739C32.0074 41.7853 29.9445 41.5789 28.4362 40.2085Z" fill="white"/>
<path d="M42.9873 32.2734L44.3131 31.3658L39.6088 24.4939L38.8673 23.8617L39.2392 23.6071L46.3989 29.9379L49.0506 28.1226L45.7391 19.1574L46.1272 18.8918L46.4321 19.8228L51.1364 26.6947L52.4623 25.787L46.961 17.751L44.2931 19.5774L47.648 28.5366L47.2762 28.7912L40.1377 22.4221L37.486 24.2374L42.9873 32.2734Z" fill="white"/>
<path d="M67.7041 17.4168L66.3671 17.9254L63.3925 10.105L61.8907 10.6762L64.8653 18.4966L60.3415 20.2173L57.3669 12.3969L55.8651 12.9681L59.3273 22.0705L67.8071 18.8452L68.7266 21.2627L70.2101 20.6984L69.2209 18.0977C68.9562 17.4018 68.4183 17.1452 67.7041 17.4168Z" fill="white"/>
<path d="M75.1004 13.9152C75.2486 14.9233 75.9489 16.7216 78.7405 16.311C81.0668 15.9689 81.8919 14.4413 82.0435 12.9138L82.5088 12.8453L82.405 13.8905L82.482 14.4139C82.5875 15.1312 83.0545 15.4785 83.7912 15.3701L85.4972 15.1192L85.2976 13.7621L83.8824 13.9703L83.2779 9.86035C82.8986 7.28198 81.0272 5.73511 78.3325 6.13146C75.5991 6.53351 74.3493 8.53946 74.643 10.5363L76.1939 10.3082C75.9258 8.48582 77.1335 7.67441 78.5293 7.46911C80.1965 7.22389 81.2748 7.95655 81.6312 9.70644L77.8469 10.6394C75.6323 11.2028 74.8751 12.3837 75.1004 13.9152ZM76.6615 13.4875C76.5218 12.5376 77.088 12.078 78.2922 11.7821L81.8051 10.889C82.0988 12.8858 80.9254 14.6033 78.7348 14.9255C77.6103 15.0909 76.824 14.5925 76.6615 13.4875Z" fill="white"/>
</svg>
