<svg width="186" height="187" viewBox="0 0 186 187" fill="none" xmlns="http://www.w3.org/2000/svg">
<path d="M102.93 15.5763L107.139 16.1801C109.447 16.5112 111.093 16.0744 111.363 14.1929C111.627 12.3503 110.389 11.7371 109.112 11.5341L109.179 11.0686C109.963 11.1217 111.105 10.8896 111.333 9.2991C111.597 7.45645 110.112 6.76833 107.804 6.43719L104.313 5.93631L102.93 15.5763ZM105.291 10.1546L105.684 7.41968L107.623 7.69795C109.194 7.92334 109.904 8.22305 109.745 9.32864C109.55 10.6864 108.802 10.6582 107.231 10.4328L105.291 10.1546ZM104.662 14.5381L105.11 11.4153L107.768 11.7965C109.319 12.0192 110.034 12.4186 109.839 13.7764C109.656 15.0565 108.871 15.142 107.32 14.9193L104.662 14.5381Z" fill="#D5D5D5"/>
<path d="M119.027 13.521C118.074 16.177 119.028 18.9133 121.998 19.9784C123.769 20.6135 126.395 20.4312 127.587 17.8613L126.056 17.3122C125.169 18.9718 123.789 19.1636 122.461 18.6873C120.285 17.9067 119.858 15.9632 120.539 14.0635C121.214 12.1821 122.779 10.9532 124.955 11.7338C126.283 12.2101 127.227 13.2356 126.857 15.0804L128.387 15.6295C129.1 12.8875 127.189 11.0778 125.418 10.4427C122.449 9.37759 119.973 10.8834 119.027 13.521Z" fill="#D5D5D5"/>
<path d="M135.125 19.8604C133.65 22.2433 133.643 25.0494 136.609 26.8845C139.241 28.5134 141.344 27.349 142.455 26.2618L141.088 25.4164C140.005 26.4973 138.676 26.5968 137.31 25.7514C135.26 24.4833 135.345 22.6696 136.231 21.0517L142.78 25.1034L143.11 24.5701C144.687 22.0206 144.072 19.5891 141.739 18.1457C139.389 16.6921 136.774 17.1942 135.125 19.8604ZM136.87 20.0186C137.695 18.6855 139.394 18.2852 141.027 19.2955C142.677 20.3162 142.911 21.9124 142.086 23.2455L136.87 20.0186Z" fill="#D5D5D5"/>
<path d="M164.289 38.8943L160.584 42.0074L156.528 37.7884L160.533 34.4233L159.5 33.193L155.464 36.5834C154.759 37.1757 154.676 37.8083 155.313 38.4757L159.533 42.8897L156.833 45.1584L157.866 46.3886L165.323 40.1246L164.289 38.8943Z" fill="#D5D5D5"/>
<path d="M174.531 55.0254L170.263 47.1531L169.057 47.8068L170.813 51.0453L163.457 55.0331L164.223 56.4457L171.579 52.4579L173.325 55.6792L174.531 55.0254Z" fill="#D5D5D5"/>
<path d="M173.262 64.0161C170.54 64.8313 168.985 67.4244 169.879 70.409C170.768 73.3748 173.487 74.6673 176.208 73.852C178.911 73.0424 180.472 70.4681 179.584 67.5023C178.69 64.5177 175.965 63.2064 173.262 64.0161ZM173.723 65.5553C175.657 64.9762 177.606 65.6809 178.27 67.8958C178.928 70.092 177.686 71.7525 175.753 72.3316C173.801 72.9163 171.851 72.2116 171.193 70.0154C170.53 67.8005 171.771 66.14 173.723 65.5553Z" fill="#D5D5D5"/>
<path d="M181.302 98.3207L177.13 98.2304L177.248 92.7451L181.421 92.8354L181.456 91.229L171.719 91.0183L171.685 92.6247L175.877 92.7154L175.758 98.2007L171.566 98.11L171.532 99.6968L181.268 99.9075L181.302 98.3207Z" fill="#D5D5D5"/>
<path d="M178.447 117.031L171.766 112.317L171.041 112.147L171.149 111.689L171.874 111.859L179.956 110.623L180.36 108.906L170.001 110.835L167.56 110.26L168.536 106.886L167.201 106.572L166.167 110.193C165.917 111.081 166.257 111.604 166.982 111.774L169.633 112.399L178.047 118.729L178.447 117.031Z" fill="#D5D5D5"/>
<path d="M167.984 138.732L169.208 139.351L169.907 137.97C170.189 137.41 170.174 136.919 169.896 136.384L168.003 132.572L168.357 131.872L172.046 133.738L172.771 132.304L169.082 130.438L169.435 129.739L173.627 129.004C174.224 128.91 174.628 128.632 174.911 128.072L175.609 126.691L174.385 126.072L173.669 127.488L169.547 128.215L166.919 122.296L166.07 123.975L168.256 128.945C168.203 129.006 168.159 129.093 168.115 129.181L167.805 129.793L164.08 127.91L163.355 129.344L167.08 131.227L166.771 131.839C166.726 131.926 166.682 132.014 166.664 132.093L161.366 133.278L160.517 134.957L166.842 133.566L168.7 137.316L167.984 138.732Z" fill="#D5D5D5"/>
<path d="M159.318 152.511L156.139 149.806L159.695 145.627L162.874 148.332L163.915 147.108L156.498 140.797L155.456 142.021L158.65 144.739L155.095 148.917L151.901 146.2L150.873 147.409L158.29 153.72L159.318 152.511Z" fill="#D5D5D5"/>
<path d="M148.782 156.423C147.058 154.165 144.082 153.627 141.606 155.518C139.146 157.397 138.898 160.398 140.623 162.656C142.335 164.898 145.295 165.448 147.756 163.569C150.232 161.678 150.495 158.666 148.782 156.423ZM147.505 157.399C148.731 159.003 148.76 161.075 146.923 162.479C145.101 163.871 143.109 163.296 141.884 161.692C140.647 160.073 140.617 158 142.439 156.608C144.276 155.205 146.268 155.779 147.505 157.399Z" fill="#D5D5D5"/>
<path d="M113.011 171.224L114.247 170.843L116.711 178.839L123.078 176.877C121.947 173.206 121.617 170.806 122 168.454L123.235 168.073L122.07 164.29L120.534 164.763L121.296 167.235L114.143 169.44L113.381 166.968L111.845 167.441L113.011 171.224ZM120.464 168.927C120.132 170.977 120.351 173.083 121.157 176.033L117.843 177.055L115.783 170.37L120.464 168.927Z" fill="#D5D5D5"/>
<path d="M97.9378 181.745L104.927 181.146C104.456 175.641 104.194 172.811 106.088 172.649L105.971 171.283C102.788 171.555 102.772 174.585 103.209 179.917L99.4217 180.241L98.7079 171.904L97.1069 172.041L97.9378 181.745Z" fill="#D5D5D5"/>
<path d="M82.3088 180.991L85.3878 181.315C87.7847 181.568 89.2872 180.957 89.4943 178.989C89.6707 177.313 88.8132 176.474 87.2203 176.07L89.21 173.265L90.7884 173.431L90.9279 172.106L89.4858 171.954C88.8622 171.888 88.3658 172.112 88.0027 172.566L85.6696 175.828L84.4613 175.701L84.9063 171.472L83.3278 171.306L82.3088 180.991ZM84.3281 176.968L85.6922 177.111C87.2512 177.275 88.0194 177.652 87.8964 178.821C87.7734 179.99 86.9436 180.198 85.3846 180.034L84.0205 179.891L84.3281 176.968Z" fill="#D5D5D5"/>
<path d="M54.8233 172.495L62.9882 176.172L63.5515 174.922L60.1926 173.409L63.6288 165.78L62.1638 165.12L58.7276 172.749L55.3866 171.244L54.8233 172.495Z" fill="#D5D5D5"/>
<path d="M52.9762 160.352L49.509 157.89C47.6076 156.54 45.9437 156.176 44.8434 157.726C43.7659 159.244 44.5869 160.356 45.6301 161.12L45.3578 161.504C44.6847 161.098 43.5631 160.782 42.633 162.092C41.5554 163.61 42.5614 164.901 44.4628 166.251L47.3389 168.293L52.9762 160.352ZM48.3972 164.094L46.7979 166.347L45.2001 165.212C43.9059 164.294 43.4121 163.703 44.0587 162.792C44.8527 161.674 45.5052 162.041 46.7994 162.959L48.3972 164.094ZM50.9607 160.483L49.1345 163.055L46.9455 161.501C45.6673 160.594 45.2142 159.912 46.0082 158.793C46.7569 157.739 47.4934 158.021 48.7717 158.929L50.9607 160.483Z" fill="#D5D5D5"/>
<path d="M37.6913 154.82C39.7747 152.888 40.0271 149.875 37.9086 147.591C35.8035 145.321 32.7932 145.36 30.7099 147.291C28.6408 149.21 28.3752 152.209 30.4803 154.479C32.5987 156.764 35.6223 156.739 37.6913 154.82ZM36.5988 153.642C35.1189 155.014 33.0582 155.242 31.486 153.546C29.9272 151.865 30.3091 149.828 31.789 148.455C33.2833 147.07 35.344 146.842 36.9029 148.523C38.475 150.219 38.0931 152.257 36.5988 153.642Z" fill="#D5D5D5"/>
<path d="M25.9373 141.294C28.349 139.867 29.6584 137.385 27.8827 134.383C26.3065 131.719 23.9034 131.774 22.4152 132.222L23.2332 133.605C24.6945 133.15 25.9178 133.679 26.7358 135.062C27.9629 137.136 27.0457 138.703 25.5102 139.725L21.5897 133.097L21.05 133.416C18.4696 134.943 17.8864 137.382 19.283 139.743C20.6896 142.121 23.2388 142.89 25.9373 141.294ZM24.4646 140.344C23.1153 141.142 21.4243 140.708 20.4467 139.055C19.4591 137.385 19.9929 135.863 21.3421 135.065L24.4646 140.344Z" fill="#D5D5D5"/>
<path d="M22.3989 124.088L21.8513 122.577L13.9852 125.429L12.2155 120.547L10.926 121.014L13.2433 127.407L22.3989 124.088Z" fill="#D5D5D5"/>
<path d="M13.6712 113.217C16.4773 112.772 18.3637 110.409 17.8749 107.332C17.3892 104.274 14.8664 102.631 12.0603 103.077C9.27362 103.519 7.3841 105.863 7.86981 108.921C8.35859 111.998 10.8845 113.66 13.6712 113.217ZM13.4191 111.63C11.4258 111.947 9.58721 110.989 9.22447 108.706C8.86479 106.441 10.3161 104.961 12.3093 104.644C14.322 104.325 16.1606 105.282 16.5203 107.547C16.883 109.83 15.4317 111.311 13.4191 111.63Z" fill="#D5D5D5"/>
<path d="M6.18395 77.8713L5.15613 85.8589L14.8151 87.1018L15.0202 85.5082L6.72162 84.4404L7.33931 79.64L15.6379 80.7078L15.843 79.1142L6.18395 77.8713Z" fill="#D5D5D5"/>
<path d="M20.2967 63.4034L11.0831 60.2488L10.0421 63.2891L17.4266 70.3947L17.2806 70.8211L16.4548 70.269L8.57595 67.5715L8.05548 69.0917L17.2691 72.2462L18.3164 69.1873L10.9504 62.0882L11.0964 61.6618L11.8852 62.2011L19.7825 64.905L20.2967 63.4034Z" fill="#D5D5D5"/>
<path d="M19.0001 44.9504L14.4595 52.6687L15.6418 53.3642L17.5097 50.189L24.7213 54.4316L25.536 53.0466L18.3244 48.8041L20.1824 45.6459L19.0001 44.9504Z" fill="#D5D5D5"/>
<path d="M27.3557 41.3977C29.4586 43.3084 32.4823 43.3023 34.5774 40.9963C36.6594 38.7049 36.3633 35.709 34.2604 33.7983C32.172 31.9008 29.1615 31.8924 27.0796 34.1839C24.9844 36.4898 25.2673 39.5002 27.3557 41.3977ZM28.4362 40.2085C26.9424 38.8513 26.5399 36.8176 28.0947 35.1062C29.6364 33.4094 31.6993 33.6158 33.1931 34.973C34.7014 36.3434 35.104 38.3771 33.5622 40.0739C32.0074 41.7853 29.9445 41.5789 28.4362 40.2085Z" fill="#D5D5D5"/>
<path d="M42.9873 32.2733L44.3131 31.3657L39.6088 24.4938L38.8673 23.8616L39.2392 23.607L46.3989 29.9378L49.0506 28.1225L45.7391 19.1573L46.1272 18.8917L46.4321 19.8227L51.1364 26.6946L52.4623 25.7869L46.961 17.7509L44.2931 19.5773L47.648 28.5365L47.2762 28.7911L40.1377 22.422L37.486 24.2373L42.9873 32.2733Z" fill="#D5D5D5"/>
<path d="M67.7041 17.4166L66.3671 17.9252L63.3925 10.1048L61.8907 10.676L64.8653 18.4964L60.3415 20.2171L57.3669 12.3967L55.8651 12.9679L59.3273 22.0703L67.8071 18.845L68.7266 21.2625L70.2101 20.6982L69.2209 18.0975C68.9562 17.4016 68.4183 17.145 67.7041 17.4166Z" fill="#D5D5D5"/>
<path d="M75.1005 13.9154C75.2487 14.9235 75.949 16.7218 78.7406 16.3112C81.0669 15.9691 81.892 14.4415 82.0436 12.914L82.5089 12.8455L82.4051 13.8907L82.4821 14.4141C82.5876 15.1314 83.0546 15.4787 83.7913 15.3703L85.4973 15.1194L85.2977 13.7623L83.8825 13.9705L83.278 9.86059C82.8987 7.28222 81.0273 5.73535 78.3326 6.1317C75.5992 6.53375 74.3494 8.5397 74.6431 10.5365L76.194 10.3084C75.9259 8.48606 77.1336 7.67465 78.5294 7.46935C80.1966 7.22413 81.2749 7.95679 81.6313 9.70668L77.847 10.6396C75.6324 11.203 74.8752 12.3839 75.1005 13.9154ZM76.6616 13.4877C76.5219 12.5378 77.0881 12.0782 78.2923 11.7823L81.8052 10.8892C82.0989 12.886 80.9255 14.6035 78.7349 14.9257C77.6104 15.0911 76.8241 14.5927 76.6616 13.4877Z" fill="#D5D5D5"/>
</svg>
