<svg width="170" height="170" viewBox="0 0 170 170" fill="none" xmlns="http://www.w3.org/2000/svg">
<path d="M94.0142 14.5593L98.2232 15.1631C100.531 15.4943 102.178 15.0574 102.448 13.176C102.712 11.3333 101.474 10.7202 100.196 10.5171L100.263 10.0516C101.047 10.1047 102.189 9.87262 102.417 8.28213C102.682 6.43948 101.197 5.75136 98.8885 5.42022L95.3972 4.91934L94.0142 14.5593ZM96.3757 9.13759L96.768 6.40271L98.7077 6.68098C100.279 6.90637 100.988 7.20608 100.829 8.31167C100.635 9.66941 99.8864 9.64125 98.3153 9.41586L96.3757 9.13759ZM95.7468 13.5212L96.1948 10.3983L98.8521 10.7796C100.404 11.0022 101.119 11.4017 100.924 12.7594C100.74 14.0395 99.9558 14.125 98.4041 13.9024L95.7468 13.5212Z" fill="black"/>
<path d="M108.623 12.2448C107.671 14.9008 108.625 17.6371 111.595 18.7022C113.365 19.3373 115.991 19.1551 117.184 16.5851L115.653 16.036C114.766 17.6956 113.386 17.8875 112.058 17.4111C109.881 16.6305 109.454 14.687 110.136 12.7873C110.81 10.9059 112.375 9.67698 114.552 10.4576C115.88 10.9339 116.824 11.9594 116.453 13.8042L117.984 14.3533C118.697 11.6113 116.786 9.80161 115.015 9.16652C112.045 8.10141 109.569 9.60725 108.623 12.2448Z" fill="black"/>
<path d="M123.215 17.9873C121.74 20.3702 121.732 23.1763 124.698 25.0114C127.331 26.6403 129.434 25.4759 130.545 24.3887L129.178 23.5433C128.095 24.6241 126.766 24.7237 125.4 23.8783C123.35 22.6102 123.435 20.7965 124.321 19.1786L130.87 23.2303L131.2 22.697C132.777 20.1475 132.161 17.716 129.829 16.2726C127.479 14.819 124.864 15.3211 123.215 17.9873ZM124.96 18.1455C125.785 16.8124 127.484 16.4121 129.117 17.4224C130.767 18.4431 131.001 20.0393 130.176 21.3724L124.96 18.1455Z" fill="black"/>
<path d="M150.449 35.5271L146.743 38.6402L142.687 34.4212L146.693 31.056L145.659 29.8257L141.623 33.2161C140.918 33.8085 140.835 34.4411 141.473 35.1084L145.692 39.5224L142.992 41.7911L144.025 43.0214L151.482 36.7573L150.449 35.5271Z" fill="black"/>
<path d="M159.697 50.3899L155.429 42.5176L154.223 43.1713L155.979 46.4098L148.623 50.3976L149.389 51.8102L156.745 47.8224L158.491 51.0437L159.697 50.3899Z" fill="black"/>
<path d="M157.745 58.0279C155.023 58.8431 153.468 61.4363 154.362 64.4208C155.25 67.3866 157.969 68.6791 160.691 67.8639C163.394 67.0543 164.955 64.4799 164.067 61.5141C163.173 58.5295 160.448 57.2183 157.745 58.0279ZM158.206 59.5671C160.14 58.988 162.089 59.6927 162.753 61.9077C163.411 64.1039 162.169 65.7643 160.236 66.3434C158.284 66.9282 156.334 66.2235 155.676 64.0273C155.013 61.8123 156.254 60.1518 158.206 59.5671Z" fill="black"/>
<path d="M165.444 89.8434L161.271 89.753L161.39 84.2678L165.563 84.3581L165.597 82.7517L155.861 82.5409L155.826 84.1473L160.019 84.2381L159.9 89.7234L155.707 89.6326L155.673 91.2194L165.409 91.4302L165.444 89.8434Z" fill="black"/>
<path d="M162.677 106.935L155.997 102.222L155.272 102.051L155.38 101.593L156.104 101.764L164.186 100.527L164.591 98.8103L154.232 100.739L151.791 100.164L152.766 96.7904L151.431 96.476L150.397 100.098C150.148 100.985 150.488 101.508 151.212 101.679L153.864 102.303L162.277 108.633L162.677 106.935Z" fill="black"/>
<path d="M152.635 127.035L153.859 127.654L154.558 126.272C154.841 125.713 154.826 125.222 154.547 124.686L152.654 120.874L153.008 120.175L156.698 122.04L157.423 120.607L153.733 118.741L154.087 118.041L158.279 117.307C158.875 117.213 159.279 116.934 159.562 116.375L160.261 114.993L159.037 114.374L158.321 115.791L154.199 116.517L151.57 110.599L150.721 112.278L152.907 117.247C152.854 117.309 152.81 117.396 152.766 117.483L152.456 118.095L148.732 116.212L148.007 117.646L151.731 119.529L151.422 120.141C151.378 120.229 151.334 120.316 151.316 120.395L146.017 121.581L145.169 123.259L151.493 121.868L153.352 125.618L152.635 127.035Z" fill="black"/>
<path d="M144.951 139.062L141.772 136.358L145.327 132.179L148.506 134.884L149.547 133.66L142.13 127.349L141.089 128.573L144.283 131.29L140.727 135.469L137.533 132.751L136.505 133.96L143.922 140.271L144.951 139.062Z" fill="black"/>
<path d="M135.507 141.771C133.783 139.513 130.807 138.975 128.331 140.866C125.871 142.745 125.623 145.745 127.348 148.003C129.06 150.246 132.02 150.796 134.481 148.917C136.957 147.025 137.22 144.013 135.507 141.771ZM134.231 142.746C135.456 144.35 135.486 146.423 133.648 147.827C131.826 149.218 129.834 148.644 128.609 147.04C127.372 145.42 127.342 143.347 129.164 141.956C131.002 140.552 132.994 141.127 134.231 142.746Z" fill="black"/>
<path d="M102.032 155.154L103.268 154.773L105.732 162.769L112.099 160.806C110.968 157.136 110.638 154.736 111.021 152.383L112.256 152.003L111.091 148.22L109.555 148.693L110.317 151.165L103.164 153.37L102.402 150.898L100.866 151.371L102.032 155.154ZM109.485 152.857C109.153 154.907 109.372 157.013 110.178 159.963L106.864 160.985L104.804 154.299L109.485 152.857Z" fill="black"/>
<path d="M88.6258 165.226L95.6152 164.628C95.1437 159.122 94.8818 156.293 96.7756 156.131L96.6586 154.764C93.4763 155.037 93.4604 158.067 93.8972 163.398L90.1097 163.723L89.3959 155.386L87.7949 155.523L88.6258 165.226Z" fill="black"/>
<path d="M74.5407 164.394L77.6197 164.718C80.0166 164.97 81.5192 164.36 81.7263 162.392C81.9026 160.716 81.0451 159.877 79.4523 159.473L81.4419 156.668L83.0204 156.834L83.1598 155.509L81.7177 155.357C81.0941 155.291 80.5977 155.515 80.2347 155.969L77.9015 159.231L76.6933 159.104L77.1382 154.875L75.5597 154.709L74.5407 164.394ZM76.56 160.371L77.9241 160.514C79.4831 160.678 80.2513 161.054 80.1283 162.224C80.0053 163.393 79.1755 163.601 77.6166 163.437L76.2525 163.294L76.56 160.371Z" fill="black"/>
<path d="M49.4107 156.377L57.5756 160.054L58.1389 158.804L54.78 157.291L58.2162 149.662L56.7512 149.002L53.315 156.631L49.974 155.126L49.4107 156.377Z" fill="black"/>
<path d="M48.9118 144.892L45.4445 142.431C43.5431 141.081 41.8792 140.717 40.779 142.267C39.7014 143.785 40.5224 144.896 41.5656 145.661L41.2934 146.045C40.6202 145.639 39.4986 145.323 38.5685 146.633C37.4909 148.151 38.497 149.442 40.3984 150.792L43.2744 152.834L48.9118 144.892ZM44.3328 148.635L42.7335 150.888L41.1356 149.753C39.8414 148.835 39.3477 148.244 39.9942 147.333C40.7882 146.215 41.4407 146.582 42.735 147.5L44.3328 148.635ZM46.8962 145.024L45.0701 147.596L42.8811 146.042C41.6028 145.135 41.1498 144.453 41.9438 143.334C42.6924 142.28 43.429 142.562 44.7072 143.47L46.8962 145.024Z" fill="black"/>
<path d="M34.8364 140.274C36.9197 138.342 37.1721 135.329 35.0537 133.044C32.9485 130.774 29.9383 130.813 27.8549 132.745C25.7858 134.664 25.5202 137.663 27.6253 139.933C29.7437 142.217 32.7673 142.193 34.8364 140.274ZM33.7438 139.096C32.2639 140.468 30.2032 140.696 28.6311 139C27.0722 137.319 27.4541 135.281 28.9341 133.909C30.4284 132.523 32.489 132.296 34.0479 133.977C35.62 135.673 35.2381 137.71 33.7438 139.096Z" fill="black"/>
<path d="M24.179 128.015C26.5907 126.588 27.9001 124.106 26.1244 121.104C24.5482 118.44 22.1451 118.495 20.6569 118.943L21.4749 120.326C22.9362 119.871 24.1595 120.4 24.9775 121.783C26.2046 123.857 25.2874 125.424 23.7519 126.446L19.8314 119.818L19.2917 120.137C16.7113 121.664 16.1281 124.103 17.5247 126.464C18.9313 128.842 21.4805 129.611 24.179 128.015ZM22.7063 127.065C21.357 127.863 19.666 127.429 18.6884 125.776C17.7008 124.106 18.2346 122.584 19.5838 121.786L22.7063 127.065Z" fill="black"/>
<path d="M21.3999 112.207L20.8523 110.696L12.9862 113.548L11.2165 108.666L9.92698 109.134L12.2443 115.526L21.3999 112.207Z" fill="black"/>
<path d="M13.0857 102.563C15.8918 102.118 17.7782 99.7546 17.2895 96.6776C16.8038 93.6199 14.281 91.9771 11.4749 92.4229C8.68817 92.8655 6.79865 95.2093 7.28436 98.2669C7.77314 101.344 10.299 103.006 13.0857 102.563ZM12.8337 100.977C10.8404 101.293 9.00176 100.335 8.63902 98.0517C8.27935 95.7875 9.73062 94.307 11.7239 93.9904C13.7365 93.6707 15.5751 94.6286 15.9348 96.8928C16.2976 99.1764 14.8463 100.657 12.8337 100.977Z" fill="black"/>
<path d="M5.94274 69.6604L4.91492 77.6481L14.5739 78.891L14.779 77.2973L6.48041 76.2295L7.0981 71.4291L15.3967 72.497L15.6018 70.9033L5.94274 69.6604Z" fill="black"/>
<path d="M19.8181 56.6842L10.6046 53.5297L9.56362 56.57L16.9481 63.6755L16.8021 64.1019L15.9763 63.5499L8.09743 60.8523L7.57697 62.3725L16.7906 65.527L17.8378 62.4682L10.4719 55.369L10.6179 54.9426L11.4067 55.4819L19.304 58.1858L19.8181 56.6842Z" fill="black"/>
<path d="M17.9474 39.7362L13.4068 47.4545L14.589 48.15L16.4569 44.9749L23.6686 49.2174L24.4833 47.8325L17.2717 43.59L19.1296 40.4317L17.9474 39.7362Z" fill="black"/>
<path d="M25.4973 37.4669C27.6002 39.3776 30.6239 39.3715 32.719 37.0655C34.801 34.7741 34.5049 31.7782 32.402 29.8675C30.3136 27.97 27.3031 27.9616 25.2212 30.2531C23.126 32.559 23.4089 35.5694 25.4973 37.4669ZM26.5778 36.2777C25.084 34.9205 24.6815 32.8868 26.2363 31.1755C27.778 29.4786 29.8409 29.685 31.3347 31.0422C32.843 32.4126 33.2456 34.4463 31.7038 36.1432C30.149 37.8545 28.0861 37.6481 26.5778 36.2777Z" fill="black"/>
<path d="M39.9477 29.567L41.2736 28.6594L36.5692 21.7875L35.8277 21.1553L36.1996 20.9007L43.3594 27.2315L46.0111 25.4162L42.6996 16.451L43.0876 16.1854L43.3926 17.1164L48.0969 23.9883L49.4227 23.0806L43.9215 15.0446L41.2536 16.871L44.6085 25.8302L44.2366 26.0848L37.0981 19.7157L34.4464 21.531L39.9477 29.567Z" fill="black"/>
<path d="M63.0507 15.7261L61.7138 16.2347L58.7392 8.41428L57.2374 8.98551L60.2119 16.8059L55.6882 18.5266L52.7136 10.7062L51.2118 11.2774L54.674 20.3798L63.1538 17.1545L64.0733 19.572L65.5568 19.0078L64.5676 16.4071C64.3029 15.7111 63.765 15.4545 63.0507 15.7261Z" fill="black"/>
<path d="M68.808 12.7824C68.9562 13.7904 69.6565 15.5888 72.4481 15.1782C74.7745 14.836 75.5995 13.3085 75.7511 11.7809L76.2164 11.7125L76.1126 12.7576L76.1896 13.2811C76.2951 13.9984 76.7621 14.3456 77.4988 14.2372L79.2048 13.9863L79.0052 12.6293L77.59 12.8374L76.9855 8.72754C76.6062 6.14916 74.7349 4.60229 72.0402 4.99864C69.3067 5.40069 68.0569 7.40664 68.3506 9.40343L69.9015 9.17532C69.6335 7.35301 70.8411 6.5416 72.2369 6.33629C73.9041 6.09107 74.9824 6.82373 75.3388 8.57363L71.5545 9.50655C69.3399 10.07 68.5827 11.2508 68.808 12.7824ZM70.3691 12.3547C70.2294 11.4047 70.7956 10.9452 71.9998 10.6492L75.5127 9.75619C75.8064 11.753 74.633 13.4704 72.4424 13.7926C71.318 13.958 70.5317 13.4597 70.3691 12.3547Z" fill="black"/>
</svg>
