<svg width="343" height="291" viewBox="0 0 343 291" fill="none" xmlns="http://www.w3.org/2000/svg">
<g clip-path="url(#clip0)">
<path d="M290.321 240.274C274.724 275.943 201.546 277.639 126.874 244.061C52.2007 210.483 4.31001 154.348 19.9067 118.679" stroke="white" stroke-width="5.20123"/>
<path d="M325.23 162.749L289.578 242.433" stroke="white" stroke-width="5.20123"/>
<path d="M54.2285 42.2761L19.662 119.722" stroke="white" stroke-width="5.20123"/>
<path d="M325.123 164.013C317.897 180.539 296.767 189.811 266.889 190.373C237.236 190.931 199.948 182.834 162.132 165.829C124.316 148.825 93.3638 126.237 73.863 103.576C54.2145 80.7439 46.8047 58.6387 54.0307 42.1129C61.2568 25.5872 82.3866 16.3152 112.265 15.753C141.918 15.1951 179.206 23.2923 217.022 40.2967C254.838 57.3012 285.79 79.8889 305.291 102.55C324.939 125.382 332.349 147.487 325.123 164.013Z" stroke="black" stroke-width="5.20123"/>
<path d="M325.137 164.009C317.911 180.535 296.781 189.807 266.903 190.369C237.249 190.927 199.961 182.83 162.145 165.826C124.329 148.821 93.3775 126.233 73.8766 103.573C54.2282 80.7402 46.8183 58.635 54.0444 42.1092C61.2705 25.5834 82.4003 16.3115 112.278 15.7493C141.932 15.1914 179.22 23.2885 217.036 40.293C254.852 57.2974 285.804 79.8852 305.304 102.546C324.953 125.378 332.363 147.484 325.137 164.009Z" stroke="white" stroke-width="5.20123"/>
<path d="M258.022 96.8104L258.071 96.8407L258.121 96.8688C268.622 102.77 274.882 109.152 277.77 115.277C280.603 121.286 280.301 127.266 277.228 132.886C271.181 143.942 254.715 149.778 234.147 139.684C227.193 136.271 221.362 133.373 216.693 130.52C212.01 127.659 208.733 124.982 206.721 122.118C204.782 119.358 203.928 116.298 204.345 112.378C204.773 108.344 206.556 103.339 210.098 96.8615C213.039 91.4848 216.005 88.0555 219.027 86.0307C221.991 84.0449 225.166 83.303 228.79 83.5812C232.487 83.865 236.689 85.2162 241.585 87.523C246.471 89.8247 251.894 93.0021 258.022 96.8104Z" stroke="white" stroke-width="5.20123"/>
<path d="M234.275 112.869C232.703 116.059 231.417 118.116 230.133 119.148C229.562 119.607 229.073 119.791 228.603 119.829C228.114 119.868 227.401 119.766 226.365 119.241C224.342 118.216 223.242 117.303 222.656 116.561C222.126 115.888 221.964 115.293 221.973 114.642C221.983 113.893 222.224 112.954 222.756 111.682C223.161 110.715 223.657 109.721 224.227 108.582C224.416 108.204 224.612 107.811 224.816 107.398C224.926 107.174 225.034 106.954 225.14 106.738C225.805 105.384 226.391 104.19 227.016 103.131C227.739 101.908 228.398 101.072 229.06 100.543C229.663 100.063 230.301 99.8069 231.15 99.8033C232.071 99.7993 233.404 100.095 235.322 101.066C236.215 101.519 236.634 102.023 236.86 102.5C237.104 103.016 237.233 103.744 237.136 104.782C236.933 106.953 235.828 109.717 234.275 112.869Z" stroke="white" stroke-width="5.20123"/>
</g>
<defs>
<clipPath id="clip0">
<rect width="343" height="291" fill="white"/>
</clipPath>
</defs>
</svg>
