<svg width="352" height="251" viewBox="0 0 352 251" fill="none" xmlns="http://www.w3.org/2000/svg">
<g clip-path="url(#clip0)">
<path d="M329.496 57.1423C334.565 76.2032 322.706 98.665 297.529 119.723C272.529 140.633 235.132 159.471 191.249 171.141C147.367 182.811 105.552 185.038 73.4685 179.308C41.1563 173.538 19.7065 159.934 14.6375 140.874C9.56864 121.813 21.4274 99.3509 46.605 78.2924C71.6047 57.3827 109.002 38.5445 152.884 26.8747C196.767 15.205 238.581 12.9781 270.665 18.7074C302.977 24.4775 324.427 38.0815 329.496 57.1423Z" stroke="white" stroke-width="5.17552"/>
<path d="M341.958 102.552C352.92 143.771 292.297 196.088 204.077 219.549C115.857 243.01 37.2961 229.112 26.3346 187.893" stroke="white" stroke-width="5.17552"/>
<path d="M28.4596 158.43C43.635 125.015 95.9117 90.6286 164.242 72.4574C234.603 53.7461 298.754 59.2846 327.392 82.8123" stroke="white" stroke-width="5.17552"/>
<path d="M15.3682 143.594L26.6009 189.334" stroke="white" stroke-width="5.17552"/>
<path d="M78.2398 231.611L62.887 173.578L83.1167 177.688L97.4827 235.34L78.2398 231.611Z" fill="#0F0F0F" stroke="white" stroke-width="5.17552"/>
<rect x="3.17859" y="1.6053" width="70.0893" height="59.5378" transform="matrix(0.941296 -0.337582 0.287021 0.957924 189.524 165.529)" fill="#0F0F0F" stroke="white" stroke-width="5.17552"/>
<path d="M241.821 181.858L195.612 198.534" stroke="white" stroke-width="3.88164"/>
<ellipse rx="5.09419" ry="5.09419" transform="matrix(-0.909854 0.414928 -0.36593 -0.930642 242.459 181.569)" fill="white"/>
<ellipse rx="5.09419" ry="5.09419" transform="matrix(-0.909854 0.414928 -0.36593 -0.930642 164.956 203.623)" fill="white"/>
<ellipse rx="5.09419" ry="5.09419" transform="matrix(-0.909854 0.414928 -0.36593 -0.930642 133.851 205.575)" fill="white"/>
<line x1="328.879" y1="54.419" x2="342.829" y2="105.926" stroke="white" stroke-width="5.36527"/>
</g>
<defs>
<clipPath id="clip0">
<rect width="352" height="251" fill="white"/>
</clipPath>
</defs>
</svg>
