<svg width="122" height="22" viewBox="0 0 122 22" fill="none" xmlns="http://www.w3.org/2000/svg">
<path d="M34.6142 18.2561V10.8981C34.6142 10.3881 34.513 10.0157 34.3106 9.781C34.1163 9.54625 33.8047 9.42888 33.3757 9.42888C32.9467 9.42888 32.631 9.54625 32.4286 9.781C32.2262 10.0157 32.1251 10.3881 32.1251 10.8981V18.2561C32.1251 18.7661 32.2222 19.1384 32.4165 19.3732C32.6188 19.6079 32.9386 19.7253 33.3757 19.7253C33.8047 19.7253 34.1163 19.6079 34.3106 19.3732C34.513 19.1384 34.6142 18.7661 34.6142 18.2561ZM40.758 0.868774C40.758 0.925437 40.7621 1.01448 40.7702 1.1359C40.7783 1.24922 40.7823 1.33422 40.7823 1.39088C40.7823 3.026 40.3371 4.28877 39.4467 5.17918C38.5644 6.06959 37.3097 6.5148 35.6827 6.5148C35.3022 6.5148 34.7315 6.49861 33.9706 6.46623C33.2178 6.43385 32.6634 6.41766 32.3072 6.41766C30.3888 6.41766 28.952 6.8993 27.9968 7.86256C27.0416 8.82583 26.5478 10.291 26.5155 12.258C26.9121 11.1976 27.7175 10.3638 28.9317 9.75671C30.154 9.14152 31.6353 8.83392 33.3757 8.83392C35.6503 8.83392 37.4716 9.36007 38.8396 10.4124C40.2157 11.4647 40.9037 12.8529 40.9037 14.5771C40.9037 16.3012 40.2157 17.6935 38.8396 18.7539C37.4716 19.8143 35.6503 20.3445 33.3757 20.3445C30.7206 20.3445 28.7698 19.7091 27.5233 18.4382C26.2848 17.1593 25.6655 15.168 25.6655 12.4644C25.6655 8.90272 26.2767 6.28815 27.499 4.62065C28.7213 2.95315 30.6316 2.1194 33.23 2.1194C33.8371 2.1194 34.6425 2.16797 35.6462 2.2651C36.65 2.36224 37.3421 2.41081 37.7225 2.41081C38.4106 2.41081 38.9286 2.29748 39.2767 2.07083C39.6329 1.83609 39.8959 1.4354 40.0659 0.868774H40.758Z" fill="#DFDFDF"/>
<path d="M50.6659 14.055V9.99955C50.6659 9.44102 50.5647 9.03224 50.3623 8.77321C50.16 8.51418 49.8443 8.38467 49.4152 8.38467C48.9943 8.38467 48.6827 8.51418 48.4803 8.77321C48.278 9.03224 48.1768 9.44102 48.1768 9.99955V14.055H50.6659ZM56.4819 14.6135L48.1768 14.6256V16.0948C48.1768 17.1876 48.4156 18.0173 48.8931 18.5839C49.3707 19.1425 50.0669 19.4217 50.9816 19.4217C51.9205 19.4217 52.7664 19.2072 53.5192 18.7782C54.2801 18.3492 54.9844 17.6854 55.6319 16.7869L56.1055 17.1148C55.4984 18.1913 54.6363 19.0008 53.5192 19.5432C52.4103 20.0774 51.0504 20.3445 49.4395 20.3445C47.1892 20.3445 45.3882 19.7698 44.0364 18.6204C42.6845 17.4628 42.0086 15.941 42.0086 14.055C42.0086 12.1851 42.6764 10.6755 44.0121 9.52601C45.3558 8.36848 47.1164 7.78971 49.2938 7.78971C51.5846 7.78971 53.3493 8.38062 54.5877 9.56244C55.8262 10.7443 56.4576 12.4279 56.4819 14.6135Z" fill="#DFDFDF"/>
<path d="M70.4816 16.7869L70.9308 17.1148C70.3885 18.1671 69.5831 18.9684 68.5146 19.5189C67.4542 20.0693 66.1712 20.3445 64.6656 20.3445C62.5448 20.3445 60.849 19.7698 59.5781 18.6204C58.3072 17.4709 57.6718 15.9491 57.6718 14.055C57.6718 12.1527 58.3113 10.635 59.5902 9.50173C60.8692 8.36038 62.5933 7.78971 64.7627 7.78971C66.754 7.78971 68.296 8.12968 69.3888 8.80964C70.4816 9.48149 71.028 10.4326 71.028 11.663C71.028 12.5615 70.7811 13.2617 70.2873 13.7636C69.8016 14.2573 69.1217 14.5042 68.2475 14.5042C67.4623 14.5042 66.839 14.2816 66.3776 13.8364C65.9162 13.3831 65.6855 12.776 65.6855 12.0151C65.6855 11.5456 65.7665 11.1571 65.9283 10.8495C66.0902 10.5338 66.3574 10.2667 66.7297 10.0481C66.8107 9.99955 66.924 9.93479 67.0697 9.85385C67.4987 9.6191 67.7132 9.37626 67.7132 9.12533C67.7132 8.92296 67.5958 8.75702 67.3611 8.62751C67.1345 8.49799 66.8309 8.43323 66.4505 8.43323C65.5519 8.43323 64.9003 8.84201 64.4956 9.65958C64.0909 10.469 63.8885 11.8006 63.8885 13.6543C63.8885 15.8156 64.103 17.2969 64.532 18.0983C64.9691 18.8996 65.726 19.3003 66.8026 19.3003C67.442 19.3003 68.0734 19.0899 68.6967 18.6689C69.32 18.2399 69.915 17.6126 70.4816 16.7869Z" fill="#DFDFDF"/>
<path d="M83.9106 19.871H74.452V19.2032H76.2976V8.76107C75.3748 8.78535 74.6058 9.10104 73.9906 9.70814C73.3754 10.3071 72.9262 11.1935 72.6429 12.3672H72.0236V8.12968H86.339V12.3672H85.6955C85.4122 11.1935 84.967 10.3071 84.3599 9.70814C83.7528 9.10104 82.9878 8.78535 82.065 8.76107V19.2032H83.9106V19.871Z" fill="#DFDFDF"/>
<path d="M95.8098 19.871V19.2032H96.599V11.3473L94.3163 19.2032H95.1055V19.871H87.0797V19.2032H88.5489V8.76107H87.0797V8.12968H95.1055V8.76107H94.3163V16.6169L96.599 8.76107H95.8098V8.12968H103.836V8.76107H102.366V19.2032H103.836V19.871H95.8098Z" fill="#DFDFDF"/>
<path d="M114.156 13.3022V8.76107H113.634C113.116 8.76107 112.724 8.89058 112.456 9.14961C112.197 9.40864 112.068 9.80123 112.068 10.3274V11.7601C112.068 12.3268 112.197 12.7275 112.456 12.9622C112.715 13.1888 113.149 13.3022 113.756 13.3022H114.156ZM121.393 19.2032V19.871H112.711V19.2032H114.156V13.9336H113.865C113.274 13.9336 112.857 14.0752 112.614 14.3585C112.38 14.6337 112.262 15.1275 112.262 15.8398V16.5927C112.262 17.8473 111.914 18.7863 111.218 19.4096C110.53 20.0329 109.486 20.3445 108.085 20.3445C107.252 20.3445 106.511 20.1948 105.863 19.8953C105.224 19.6039 104.722 19.1829 104.358 18.6325L104.831 18.2561C104.961 18.4585 105.102 18.6163 105.256 18.7296C105.41 18.843 105.56 18.8996 105.705 18.8996C105.827 18.8996 105.916 18.8713 105.973 18.8146C106.029 18.758 106.082 18.6366 106.13 18.4504C106.147 18.3694 106.163 18.0537 106.179 17.5033C106.195 16.9448 106.284 16.4672 106.446 16.0705C106.754 15.2854 107.239 14.7106 107.903 14.3464C108.575 13.9821 109.474 13.8 110.599 13.8V13.4843C109.045 13.4195 107.907 13.1808 107.187 12.7679C106.466 12.347 106.106 11.7237 106.106 10.8981C106.106 9.9267 106.551 9.22246 107.442 8.78535C108.34 8.34824 109.801 8.12968 111.825 8.12968H121.393V8.76107H119.924V19.2032H121.393Z" fill="#DFDFDF"/>
<path d="M2.35751 4.20673L0.818359 5.79077L6.58897 11.7297L8.12812 10.1456L2.35751 4.20673Z" fill="#DFDFDF"/>
<path d="M4.43413 2.04153L2.8999 3.63037L8.65205 9.58727L10.1863 7.99843L4.43413 2.04153Z" fill="#DFDFDF"/>
<path d="M19.4494 17.6575L13.7202 11.7243L10.0981 15.4753L15.8274 21.4085L19.4494 17.6575Z" fill="#DFDFDF"/>
<path d="M15.7461 6.01109C17.2796 2.93386 15.277 0.920059 15.2753 1.00308C15.2361 3.07341 10.1768 7.9984 10.1768 7.9984L13.7333 11.7257C13.7333 11.7257 18.5896 6.54104 20.5905 6.50041C20.6672 6.49864 18.7175 4.42125 15.7461 6.01109Z" fill="#DFDFDF"/>
<path d="M6.32892 14.8965C7.09954 14.8965 7.72425 14.2495 7.72425 13.4515C7.72425 12.6534 7.09954 12.0065 6.32892 12.0065C5.5583 12.0065 4.93359 12.6534 4.93359 13.4515C4.93359 14.2495 5.5583 14.8965 6.32892 14.8965Z" fill="#DFDFDF"/>
<path d="M8.38457 17.0053C9.15519 17.0053 9.77989 16.3583 9.77989 15.5603C9.77989 14.7622 9.15519 14.1153 8.38457 14.1153C7.61396 14.1153 6.98926 14.7622 6.98926 15.5603C6.98926 16.3583 7.61396 17.0053 8.38457 17.0053Z" fill="#DFDFDF"/>
<path d="M4.29131 17.008C5.06193 17.008 5.68663 16.3611 5.68663 15.563C5.68663 14.765 5.06193 14.118 4.29131 14.118C3.5207 14.118 2.896 14.765 2.896 15.563C2.896 16.3611 3.5207 17.008 4.29131 17.008Z" fill="#DFDFDF"/>
<path d="M6.3465 19.1169C7.11711 19.1169 7.74182 18.4699 7.74182 17.6719C7.74182 16.8738 7.11711 16.2269 6.3465 16.2269C5.57588 16.2269 4.95117 16.8738 4.95117 17.6719C4.95117 18.4699 5.57588 19.1169 6.3465 19.1169Z" fill="#DFDFDF"/>
<path d="M2.2337 19.1377C3.00431 19.1377 3.62901 18.4908 3.62901 17.6927C3.62901 16.8947 3.00431 16.2477 2.2337 16.2477C1.46308 16.2477 0.838379 16.8947 0.838379 17.6927C0.838379 18.4908 1.46308 19.1377 2.2337 19.1377Z" fill="#DFDFDF"/>
<path d="M4.29131 21.2466C5.06193 21.2466 5.68663 20.5996 5.68663 19.8016C5.68663 19.0035 5.06193 18.3566 4.29131 18.3566C3.5207 18.3566 2.896 19.0035 2.896 19.8016C2.896 20.5996 3.5207 21.2466 4.29131 21.2466Z" fill="#DFDFDF"/>
</svg>
