<svg width="56" height="60" viewBox="0 0 56 60" fill="none" xmlns="http://www.w3.org/2000/svg">
<g clip-path="url(#clip0)">
<path fill-rule="evenodd" clip-rule="evenodd" d="M26.495 57.9243L26.5016 57.9289C27.1127 58.4523 27.4234 58.7184 27.7413 58.7273C28.0702 58.7366 28.4068 58.4707 29.0915 57.9298L27.7977 55.9078C29.0915 57.9298 29.0945 57.9277 29.0945 57.9277L29.0994 57.9243L29.115 57.9134L29.1685 57.8757C29.2139 57.8436 29.2787 57.7974 29.3616 57.7376C29.5273 57.618 29.7655 57.4438 30.0657 57.2179C30.6659 56.7662 31.5157 56.107 32.5319 55.2638C34.5608 53.5807 37.272 51.1492 39.9911 48.1588C45.3339 42.283 51.1305 33.7895 51.1305 24.3038C51.1305 17.8564 48.6722 11.673 44.2964 7.11394C39.9205 2.5549 33.9856 -0.00634766 27.7972 -0.00634766C21.6088 -0.00634766 15.6739 2.5549 11.298 7.11394C6.92219 11.673 4.46387 17.8564 4.46387 24.3038C4.46387 33.7895 10.2605 42.283 15.6033 48.1588C18.3224 51.1492 21.0336 53.5807 23.0625 55.2638C24.0787 56.107 24.9285 56.7662 25.5287 57.2179C25.829 57.4438 26.0671 57.618 26.2328 57.7376C26.3157 57.7974 26.3805 57.8436 26.4259 57.8757L26.4794 57.9134L26.495 57.9243ZM27.6856 13.7767L19.5059 22.299L27.6856 30.8212L35.8654 22.299L27.6856 13.7767Z" fill="black"/>
</g>
<defs>
<clipPath id="clip0">
<rect y="0.0100098" width="56" height="59" fill="white"/>
</clipPath>
</defs>
</svg>
