<svg width="21" height="17" viewBox="0 0 21 17" fill="none" xmlns="http://www.w3.org/2000/svg">
<path d="M20.4431 2.69631C20.2141 1.7061 19.5396 0.926233 18.6832 0.661577C17.1308 0.180664 10.9061 0.180664 10.9061 0.180664C10.9061 0.180664 4.68136 0.180664 3.12897 0.661577C2.27253 0.926275 1.59801 1.7061 1.36908 2.69631C0.953125 4.49113 0.953125 8.23585 0.953125 8.23585C0.953125 8.23585 0.953125 11.9806 1.36908 13.7754C1.59801 14.7656 2.27253 15.513 3.12897 15.7777C4.68136 16.2586 10.9061 16.2586 10.9061 16.2586C10.9061 16.2586 17.1308 16.2586 18.6832 15.7777C19.5396 15.513 20.2141 14.7656 20.4431 13.7754C20.859 11.9806 20.859 8.23585 20.859 8.23585C20.859 8.23585 20.859 4.49113 20.4431 2.69631ZM8.87024 11.6358V4.83592L14.0729 8.23593L8.87024 11.6358Z" fill="white"/>
</svg>
