<svg width="24" height="24" viewBox="0 0 24 24" fill="none" xmlns="http://www.w3.org/2000/svg">
<path fill-rule="evenodd" clip-rule="evenodd" d="M21.6419 12.0842C21.694 13.156 22.4118 14.1386 23.7954 15.032C19.977 15.1984 18.9513 16.991 20.7182 20.4098C17.3191 18.6399 15.5372 19.6837 15.3725 23.5413C14.4441 22.0588 13.4184 21.3326 12.2954 21.3629C11.1424 21.3931 10.1166 22.1193 9.21821 23.5413C9.05349 19.6837 7.27159 18.6399 3.8725 20.4098C5.63943 16.991 4.61372 15.1984 0.795356 15.032C2.17258 14.1439 2.89037 13.1327 2.94871 11.9984C2.89662 10.9265 2.17882 9.94394 0.795288 9.05054C4.61365 8.88414 5.63936 7.09152 3.87244 3.67268C7.27152 5.44261 9.05343 4.3988 9.21814 0.541262C10.1465 2.02377 11.1722 2.74989 12.2953 2.71964C13.4483 2.68938 14.474 1.96326 15.3724 0.54126C15.5371 4.3988 17.3191 5.44261 20.7181 3.67268C18.9512 7.09152 19.9769 8.88414 23.7953 9.05054C22.4181 9.93865 21.7003 10.9499 21.6419 12.0842Z" fill="white"/>
</svg>
