<svg width="21" height="17" viewBox="0 0 21 17" fill="none" xmlns="http://www.w3.org/2000/svg">
<path d="M20.4446 2.69655C20.2156 1.70634 19.5411 0.926477 18.6847 0.661821C17.1323 0.180908 10.9076 0.180908 10.9076 0.180908C10.9076 0.180908 4.68283 0.180908 3.13044 0.661821C2.274 0.926519 1.59948 1.70634 1.37054 2.69655C0.95459 4.49137 0.95459 8.23609 0.95459 8.23609C0.95459 8.23609 0.95459 11.9808 1.37054 13.7756C1.59948 14.7658 2.274 15.5132 3.13044 15.7779C4.68283 16.2588 10.9076 16.2588 10.9076 16.2588C10.9076 16.2588 17.1323 16.2588 18.6847 15.7779C19.5411 15.5132 20.2156 14.7658 20.4446 13.7756C20.8605 11.9808 20.8605 8.23609 20.8605 8.23609C20.8605 8.23609 20.8605 4.49137 20.4446 2.69655ZM8.87171 11.636V4.83616L14.0744 8.23617L8.87171 11.636Z" fill="#D5D5D5"/>
</svg>
