<svg width="56" height="60" viewBox="0 0 56 60" fill="none" xmlns="http://www.w3.org/2000/svg">
<g clip-path="url(#clip0)">
<path fill-rule="evenodd" clip-rule="evenodd" d="M27.7972 55.9068C26.5016 57.9287 26.5016 57.9287 26.5016 57.9287L26.495 57.924L26.4794 57.9132L26.4259 57.8755C26.3805 57.8433 26.3157 57.7972 26.2328 57.7374C26.0671 57.6178 25.829 57.4435 25.5287 57.2176C24.9285 56.766 24.0787 56.1067 23.0625 55.2636C21.0336 53.5804 18.3224 51.1489 15.6033 48.1586C10.2605 42.2828 4.46387 33.7893 4.46387 24.3036C4.46387 17.8561 6.92219 11.6727 11.298 7.1137C15.6739 2.55465 21.6088 -0.0065918 27.7972 -0.0065918C33.9856 -0.0065918 39.9205 2.55465 44.2964 7.1137C48.6722 11.6727 51.1305 17.8561 51.1305 24.3036C51.1305 33.7893 45.3339 42.2828 39.9911 48.1586C37.272 51.1489 34.5608 53.5804 32.5319 55.2636C31.5157 56.1067 30.6659 56.766 30.0657 57.2176C29.7655 57.4435 29.5273 57.6178 29.3616 57.7374C29.2787 57.7972 29.2139 57.8433 29.1685 57.8755L29.115 57.9132L29.0994 57.924L29.0945 57.9275C29.0945 57.9275 29.0915 57.9296 27.7972 55.9068ZM27.7972 55.9068L29.0915 57.9296C27.7448 58.9934 27.7448 58.9934 26.5016 57.9287L27.7972 55.9068Z" fill="black"/>
<rect width="11.8126" height="11.8126" transform="matrix(0.692463 -0.721453 0.692463 0.721453 19.5059 22.2988)" fill="#C4C4C4"/>
</g>
<defs>
<clipPath id="clip0">
<rect y="0.00976562" width="56" height="59" fill="white"/>
</clipPath>
</defs>
</svg>
