<svg width="23" height="23" viewBox="0 0 23 23" fill="none" xmlns="http://www.w3.org/2000/svg">
<path d="M11.5145 5.67075C8.3896 5.67075 5.86905 8.20745 5.86905 11.3524C5.86905 14.4973 8.3896 17.034 11.5145 17.034C14.6394 17.034 17.1599 14.4973 17.1599 11.3524C17.1599 8.20745 14.6394 5.67075 11.5145 5.67075ZM11.5145 15.0462C9.4951 15.0462 7.84421 13.3896 7.84421 11.3524C7.84421 9.31509 9.49018 7.65857 11.5145 7.65857C13.5388 7.65857 15.1847 9.31509 15.1847 11.3524C15.1847 13.3896 13.5339 15.0462 11.5145 15.0462ZM18.7076 5.43834C18.7076 6.17512 18.118 6.76356 17.3908 6.76356C16.6587 6.76356 16.0741 6.17017 16.0741 5.43834C16.0741 4.7065 16.6637 4.11312 17.3908 4.11312C18.118 4.11312 18.7076 4.7065 18.7076 5.43834ZM22.4467 6.78333C22.3631 5.00814 21.9602 3.43568 20.668 2.14013C19.3807 0.844582 17.8183 0.439105 16.0544 0.350098C14.2365 0.246256 8.78758 0.246256 6.96964 0.350098C5.21066 0.43416 3.64822 0.839637 2.35601 2.13519C1.06381 3.43073 0.665825 5.00319 0.577385 6.77839C0.474205 8.60798 0.474205 14.0918 0.577385 15.9214C0.660912 17.6966 1.06381 19.2691 2.35601 20.5646C3.64822 21.8601 5.20575 22.2656 6.96964 22.3546C8.78758 22.4585 14.2365 22.4585 16.0544 22.3546C17.8183 22.2706 19.3807 21.8651 20.668 20.5646C21.9553 19.2691 22.3582 17.6966 22.4467 15.9214C22.5498 14.0918 22.5498 8.61293 22.4467 6.78333ZM20.0981 17.8845C19.7148 18.8537 18.9729 19.6004 18.005 19.991C16.5556 20.5695 13.1162 20.436 11.5145 20.436C9.91273 20.436 6.46848 20.5646 5.02396 19.991C4.06094 19.6053 3.31903 18.8586 2.93088 17.8845C2.35601 16.4258 2.48867 12.9644 2.48867 11.3524C2.48867 9.74035 2.36093 6.27402 2.93088 4.82023C3.31412 3.85104 4.05603 3.10437 5.02396 2.71373C6.47339 2.13518 9.91273 2.2687 11.5145 2.2687C13.1162 2.2687 16.5605 2.14013 18.005 2.71373C18.968 3.09943 19.7099 3.8461 20.0981 4.82023C20.6729 6.27896 20.5403 9.74035 20.5403 11.3524C20.5403 12.9644 20.6729 16.4307 20.0981 17.8845Z" fill="#D5D5D5"/>
</svg>
