<svg width="34" height="30" viewBox="0 0 34 30" fill="none" xmlns="http://www.w3.org/2000/svg">
<path d="M30.5325 3.387C29.7506 2.63025 28.8222 2.02994 27.8004 1.62037C26.7786 1.21081 25.6834 1 24.5774 1C23.4714 1 22.3762 1.21081 21.3544 1.62037C20.3326 2.02994 19.4042 2.63025 18.6223 3.387L16.9996 4.95678L15.3769 3.387C13.7975 1.85914 11.6554 1.00079 9.42177 1.00079C7.18818 1.00079 5.04607 1.85914 3.46668 3.387C1.88729 4.91486 1 6.98708 1 9.1478C1 11.3085 1.88729 13.3807 3.46668 14.9086L5.0894 16.4784L16.9996 28L28.9098 16.4784L30.5325 14.9086C31.3148 14.1522 31.9353 13.2541 32.3587 12.2657C32.7821 11.2772 33 10.2178 33 9.1478C33 8.07785 32.7821 7.01838 32.3587 6.02992C31.9353 5.04147 31.3148 4.14339 30.5325 3.387Z" stroke="black" stroke-width="1.99661"/>
</svg>
