<svg width="23" height="23" viewBox="0 0 23 23" fill="none" xmlns="http://www.w3.org/2000/svg">
<path d="M11.5145 5.67051C8.3896 5.67051 5.86905 8.20721 5.86905 11.3522C5.86905 14.4971 8.3896 17.0338 11.5145 17.0338C14.6394 17.0338 17.1599 14.4971 17.1599 11.3522C17.1599 8.20721 14.6394 5.67051 11.5145 5.67051ZM11.5145 15.046C9.4951 15.046 7.84421 13.3894 7.84421 11.3522C7.84421 9.31485 9.49018 7.65833 11.5145 7.65833C13.5388 7.65833 15.1847 9.31485 15.1847 11.3522C15.1847 13.3894 13.5339 15.046 11.5145 15.046ZM18.7076 5.4381C18.7076 6.17488 18.118 6.76332 17.3908 6.76332C16.6587 6.76332 16.0741 6.16993 16.0741 5.4381C16.0741 4.70626 16.6637 4.11288 17.3908 4.11288C18.118 4.11288 18.7076 4.70626 18.7076 5.4381ZM22.4467 6.78309C22.3631 5.0079 21.9602 3.43544 20.668 2.13989C19.3807 0.844338 17.8183 0.438861 16.0544 0.349854C14.2365 0.246012 8.78758 0.246012 6.96964 0.349854C5.21066 0.433916 3.64822 0.839393 2.35601 2.13495C1.06381 3.43049 0.665825 5.00295 0.577385 6.77815C0.474205 8.60774 0.474205 14.0916 0.577385 15.9212C0.660912 17.6964 1.06381 19.2689 2.35601 20.5644C3.64822 21.8599 5.20575 22.2654 6.96964 22.3544C8.78758 22.4583 14.2365 22.4583 16.0544 22.3544C17.8183 22.2704 19.3807 21.8649 20.668 20.5644C21.9553 19.2689 22.3582 17.6964 22.4467 15.9212C22.5498 14.0916 22.5498 8.61269 22.4467 6.78309ZM20.0981 17.8843C19.7148 18.8535 18.9729 19.6002 18.005 19.9908C16.5556 20.5693 13.1162 20.4358 11.5145 20.4358C9.91273 20.4358 6.46848 20.5644 5.02396 19.9908C4.06094 19.6051 3.31903 18.8584 2.93088 17.8843C2.35601 16.4256 2.48867 12.9642 2.48867 11.3522C2.48867 9.74011 2.36093 6.27378 2.93088 4.81999C3.31412 3.8508 4.05603 3.10413 5.02396 2.71349C6.47339 2.13494 9.91273 2.26846 11.5145 2.26846C13.1162 2.26846 16.5605 2.13989 18.005 2.71349C18.968 3.09919 19.7099 3.84586 20.0981 4.81999C20.6729 6.27872 20.5403 9.74011 20.5403 11.3522C20.5403 12.9642 20.6729 16.4305 20.0981 17.8843Z" fill="white"/>
</svg>
