<svg width="122" height="22" viewBox="0 0 122 22" fill="none" xmlns="http://www.w3.org/2000/svg">
<path d="M34.6142 18.2565V10.8985C34.6142 10.3885 34.513 10.0161 34.3106 9.78137C34.1163 9.54662 33.8047 9.42925 33.3757 9.42925C32.9467 9.42925 32.631 9.54662 32.4286 9.78137C32.2262 10.0161 32.1251 10.3885 32.1251 10.8985V18.2565C32.1251 18.7665 32.2222 19.1388 32.4165 19.3736C32.6188 19.6083 32.9386 19.7257 33.3757 19.7257C33.8047 19.7257 34.1163 19.6083 34.3106 19.3736C34.513 19.1388 34.6142 18.7665 34.6142 18.2565ZM40.758 0.869141C40.758 0.925804 40.7621 1.01485 40.7702 1.13627C40.7783 1.24959 40.7823 1.33459 40.7823 1.39125C40.7823 3.02637 40.3371 4.28914 39.4467 5.17955C38.5644 6.06996 37.3097 6.51517 35.6827 6.51517C35.3022 6.51517 34.7315 6.49898 33.9706 6.4666C33.2178 6.43422 32.6634 6.41803 32.3072 6.41803C30.3888 6.41803 28.952 6.89967 27.9968 7.86293C27.0416 8.8262 26.5478 10.2914 26.5155 12.2584C26.9121 11.198 27.7175 10.3642 28.9317 9.75708C30.154 9.14189 31.6353 8.83429 33.3757 8.83429C35.6503 8.83429 37.4716 9.36044 38.8396 10.4128C40.2157 11.4651 40.9037 12.8533 40.9037 14.5775C40.9037 16.3016 40.2157 17.6939 38.8396 18.7543C37.4716 19.8147 35.6503 20.3449 33.3757 20.3449C30.7206 20.3449 28.7698 19.7095 27.5233 18.4386C26.2848 17.1597 25.6655 15.1684 25.6655 12.4648C25.6655 8.90309 26.2767 6.28852 27.499 4.62102C28.7213 2.95352 30.6316 2.11977 33.23 2.11977C33.8371 2.11977 34.6425 2.16834 35.6462 2.26547C36.65 2.36261 37.3421 2.41118 37.7225 2.41118C38.4106 2.41118 38.9286 2.29785 39.2767 2.0712C39.6329 1.83646 39.8959 1.43577 40.0659 0.869141H40.758Z" fill="black"/>
<path d="M50.6659 14.0553V9.99988C50.6659 9.44135 50.5647 9.03257 50.3623 8.77354C50.16 8.51451 49.8443 8.385 49.4152 8.385C48.9943 8.385 48.6827 8.51451 48.4803 8.77354C48.278 9.03257 48.1768 9.44135 48.1768 9.99988V14.0553H50.6659ZM56.4819 14.6138L48.1768 14.6259V16.0951C48.1768 17.1879 48.4156 18.0176 48.8931 18.5842C49.3707 19.1428 50.0669 19.422 50.9816 19.422C51.9205 19.422 52.7664 19.2075 53.5192 18.7785C54.2801 18.3495 54.9844 17.6857 55.6319 16.7872L56.1055 17.1151C55.4984 18.1916 54.6363 19.0011 53.5192 19.5435C52.4103 20.0777 51.0504 20.3448 49.4395 20.3448C47.1892 20.3448 45.3882 19.7701 44.0364 18.6207C42.6845 17.4631 42.0086 15.9413 42.0086 14.0553C42.0086 12.1854 42.6764 10.6758 44.0121 9.52634C45.3558 8.36881 47.1164 7.79004 49.2938 7.79004C51.5846 7.79004 53.3493 8.38095 54.5877 9.56277C55.8262 10.7446 56.4576 12.4282 56.4819 14.6138Z" fill="black"/>
<path d="M70.4816 16.7872L70.9308 17.1151C70.3885 18.1674 69.5831 18.9687 68.5146 19.5192C67.4542 20.0696 66.1712 20.3448 64.6656 20.3448C62.5448 20.3448 60.849 19.7701 59.5781 18.6207C58.3072 17.4712 57.6718 15.9494 57.6718 14.0553C57.6718 12.153 58.3113 10.6353 59.5902 9.50206C60.8692 8.36071 62.5933 7.79004 64.7627 7.79004C66.754 7.79004 68.296 8.13001 69.3888 8.80997C70.4816 9.48182 71.028 10.4329 71.028 11.6633C71.028 12.5618 70.7811 13.262 70.2873 13.7639C69.8016 14.2576 69.1217 14.5045 68.2475 14.5045C67.4623 14.5045 66.839 14.2819 66.3776 13.8367C65.9162 13.3834 65.6855 12.7763 65.6855 12.0154C65.6855 11.5459 65.7665 11.1574 65.9283 10.8498C66.0902 10.5341 66.3574 10.267 66.7297 10.0484C66.8107 9.99988 66.924 9.93512 67.0697 9.85418C67.4987 9.61943 67.7132 9.37659 67.7132 9.12566C67.7132 8.92329 67.5958 8.75735 67.3611 8.62784C67.1345 8.49832 66.8309 8.43356 66.4505 8.43356C65.5519 8.43356 64.9003 8.84234 64.4956 9.65991C64.0909 10.4693 63.8885 11.8009 63.8885 13.6546C63.8885 15.8159 64.103 17.2972 64.532 18.0986C64.9691 18.8999 65.726 19.3006 66.8026 19.3006C67.442 19.3006 68.0734 19.0902 68.6967 18.6692C69.32 18.2402 69.915 17.6129 70.4816 16.7872Z" fill="black"/>
<path d="M83.9106 19.8712H74.452V19.2034H76.2976V8.76127C75.3748 8.78555 74.6058 9.10124 73.9906 9.70834C73.3754 10.3073 72.9262 11.1937 72.6429 12.3674H72.0236V8.12988H86.339V12.3674H85.6955C85.4122 11.1937 84.967 10.3073 84.3599 9.70834C83.7528 9.10124 82.9878 8.78555 82.065 8.76127V19.2034H83.9106V19.8712Z" fill="black"/>
<path d="M95.8098 19.8712V19.2034H96.599V11.3475L94.3163 19.2034H95.1055V19.8712H87.0797V19.2034H88.5489V8.76127H87.0797V8.12988H95.1055V8.76127H94.3163V16.6171L96.599 8.76127H95.8098V8.12988H103.836V8.76127H102.366V19.2034H103.836V19.8712H95.8098Z" fill="black"/>
<path d="M114.156 13.3024V8.76127H113.634C113.116 8.76127 112.724 8.89078 112.456 9.14981C112.197 9.40884 112.068 9.80143 112.068 10.3276V11.7603C112.068 12.327 112.197 12.7277 112.456 12.9624C112.715 13.189 113.149 13.3024 113.756 13.3024H114.156ZM121.393 19.2034V19.8712H112.711V19.2034H114.156V13.9338H113.865C113.274 13.9338 112.857 14.0754 112.614 14.3587C112.38 14.6339 112.262 15.1277 112.262 15.84V16.5929C112.262 17.8475 111.914 18.7865 111.218 19.4098C110.53 20.0331 109.486 20.3447 108.085 20.3447C107.252 20.3447 106.511 20.195 105.863 19.8955C105.224 19.6041 104.722 19.1831 104.358 18.6327L104.831 18.2563C104.961 18.4587 105.102 18.6165 105.256 18.7298C105.41 18.8432 105.56 18.8998 105.705 18.8998C105.827 18.8998 105.916 18.8715 105.973 18.8148C106.029 18.7582 106.082 18.6368 106.13 18.4506C106.147 18.3696 106.163 18.0539 106.179 17.5035C106.195 16.945 106.284 16.4674 106.446 16.0707C106.754 15.2856 107.239 14.7108 107.903 14.3466C108.575 13.9823 109.474 13.8002 110.599 13.8002V13.4845C109.045 13.4197 107.907 13.181 107.187 12.7681C106.466 12.3472 106.106 11.7239 106.106 10.8983C106.106 9.9269 106.551 9.22266 107.442 8.78555C108.34 8.34844 109.801 8.12988 111.825 8.12988H121.393V8.76127H119.924V19.2034H121.393Z" fill="black"/>
<path d="M2.35751 4.20703L0.818359 5.79107L6.58897 11.73L8.12812 10.1459L2.35751 4.20703Z" fill="black"/>
<path d="M4.43413 2.04199L2.8999 3.63083L8.65205 9.58773L10.1863 7.99889L4.43413 2.04199Z" fill="black"/>
<path d="M19.4494 17.6578L13.7202 11.7246L10.0981 15.4756L15.8274 21.4088L19.4494 17.6578Z" fill="black"/>
<path d="M15.7461 6.01146C17.2796 2.93423 15.277 0.920429 15.2753 1.00345C15.2361 3.07378 10.1768 7.99877 10.1768 7.99877L13.7333 11.7261C13.7333 11.7261 18.5896 6.54141 20.5905 6.50078C20.6672 6.49901 18.7175 4.42162 15.7461 6.01146Z" fill="black"/>
<path d="M6.32892 14.8968C7.09954 14.8968 7.72425 14.2498 7.72425 13.4518C7.72425 12.6537 7.09954 12.0068 6.32892 12.0068C5.5583 12.0068 4.93359 12.6537 4.93359 13.4518C4.93359 14.2498 5.5583 14.8968 6.32892 14.8968Z" fill="black"/>
<path d="M8.38457 17.0052C9.15519 17.0052 9.77989 16.3582 9.77989 15.5602C9.77989 14.7621 9.15519 14.1152 8.38457 14.1152C7.61396 14.1152 6.98926 14.7621 6.98926 15.5602C6.98926 16.3582 7.61396 17.0052 8.38457 17.0052Z" fill="black"/>
<path d="M4.29131 17.0082C5.06193 17.0082 5.68663 16.3613 5.68663 15.5632C5.68663 14.7652 5.06193 14.1182 4.29131 14.1182C3.5207 14.1182 2.896 14.7652 2.896 15.5632C2.896 16.3613 3.5207 17.0082 4.29131 17.0082Z" fill="black"/>
<path d="M6.3465 19.1166C7.11711 19.1166 7.74182 18.4696 7.74182 17.6716C7.74182 16.8735 7.11711 16.2266 6.3465 16.2266C5.57588 16.2266 4.95117 16.8735 4.95117 17.6716C4.95117 18.4696 5.57588 19.1166 6.3465 19.1166Z" fill="black"/>
<path d="M2.2337 19.138C3.00431 19.138 3.62901 18.4911 3.62901 17.693C3.62901 16.895 3.00431 16.248 2.2337 16.248C1.46308 16.248 0.838379 16.895 0.838379 17.693C0.838379 18.4911 1.46308 19.138 2.2337 19.138Z" fill="black"/>
<path d="M4.29131 21.2464C5.06193 21.2464 5.68663 20.5994 5.68663 19.8014C5.68663 19.0033 5.06193 18.3564 4.29131 18.3564C3.5207 18.3564 2.896 19.0033 2.896 19.8014C2.896 20.5994 3.5207 21.2464 4.29131 21.2464Z" fill="black"/>
</svg>
