<svg width="42" height="41" viewBox="0 0 42 41" fill="none" xmlns="http://www.w3.org/2000/svg">
<path d="M3.88032 6.77612L0.727539 9.9137L12.548 21.6772L15.7008 18.5396L3.88032 6.77612Z" fill="white"/>
<path d="M8.12877 2.48712L4.98633 5.63391L16.768 17.4319L19.9104 14.2851L8.12877 2.48712Z" fill="white"/>
<path d="M38.8933 33.4157L27.1587 21.6646L19.7399 29.0938L31.4746 40.8449L38.8933 33.4157Z" fill="white"/>
<path d="M31.3003 10.35C34.4413 4.25535 30.3395 0.266853 30.336 0.431291C30.2557 4.53174 19.8931 14.2861 19.8931 14.2861L27.1776 21.6683C27.1776 21.6683 37.1245 11.3996 41.2227 11.3192C41.38 11.3157 37.3865 7.20123 31.3003 10.35Z" fill="white"/>
<path d="M12.0092 27.9484C13.5876 27.9484 14.8671 26.6671 14.8671 25.0866C14.8671 23.506 13.5876 22.2247 12.0092 22.2247C10.4309 22.2247 9.15137 23.506 9.15137 25.0866C9.15137 26.6671 10.4309 27.9484 12.0092 27.9484Z" fill="white"/>
<path d="M16.2221 32.1261C17.8004 32.1261 19.0799 30.8447 19.0799 29.2642C19.0799 27.6836 17.8004 26.4023 16.2221 26.4023C14.6437 26.4023 13.3643 27.6836 13.3643 29.2642C13.3643 30.8447 14.6437 32.1261 16.2221 32.1261Z" fill="white"/>
<path d="M7.83248 32.1287C9.41083 32.1287 10.6903 30.8474 10.6903 29.2669C10.6903 27.6863 9.41083 26.405 7.83248 26.405C6.25412 26.405 4.97461 27.6863 4.97461 29.2669C4.97461 30.8474 6.25412 32.1287 7.83248 32.1287Z" fill="white"/>
<path d="M12.0499 36.3064C13.6283 36.3064 14.9079 35.0251 14.9079 33.4445C14.9079 31.8639 13.6283 30.5826 12.0499 30.5826C10.4715 30.5826 9.19189 31.8639 9.19189 33.4445C9.19189 35.0251 10.4715 36.3064 12.0499 36.3064Z" fill="white"/>
<path d="M3.62398 36.3486C5.20234 36.3486 6.48185 35.0673 6.48185 33.4867C6.48185 31.9062 5.20234 30.6248 3.62398 30.6248C2.04562 30.6248 0.766113 31.9062 0.766113 33.4867C0.766113 35.0673 2.04562 36.3486 3.62398 36.3486Z" fill="white"/>
<path d="M7.83248 40.5263C9.41083 40.5263 10.6903 39.245 10.6903 37.6644C10.6903 36.0838 9.41083 34.8025 7.83248 34.8025C6.25412 34.8025 4.97461 36.0838 4.97461 37.6644C4.97461 39.245 6.25412 40.5263 7.83248 40.5263Z" fill="white"/>
</svg>
