<svg width="233" height="244" viewBox="0 0 233 244" fill="none" xmlns="http://www.w3.org/2000/svg">
<path d="M19.4769 150.511L20.4795 152.678L7.13257 158.899L8.06459 160.912L21.4115 154.691L25.0549 162.563L11.7079 168.784L12.6399 170.797L27.6894 163.783L21.3348 150.054L25.2872 148.211L24.3552 146.198L20.3724 148.054C19.3083 148.55 18.9826 149.444 19.4769 150.511Z" fill="white"/>
<path d="M16.9328 130.229L0.742423 133.878L1.73409 138.309L19.0553 142.783L19.2022 143.439L17.8205 143.406L3.59255 146.613L4.07737 148.779L20.2677 145.13L19.2761 140.699L1.95485 136.225L1.80794 135.568L3.18971 135.602L17.4176 132.395L16.9328 130.229Z" fill="white"/>
<path d="M16.8102 112.046L8.23196 119.734L2.13694 115.309L2.09974 112.585L0.222656 112.611L0.257553 115.167C0.271329 116.176 0.715805 116.809 1.49456 117.37L7.65708 121.827L7.67544 123.173L0.368214 123.273L0.398519 125.493L16.9906 125.265L16.9603 123.045L9.65309 123.146L9.63839 122.069C9.63472 121.8 9.59753 121.532 9.52727 121.297L16.8469 114.737L16.8102 112.046Z" fill="white"/>
<path d="M4.15224 89.4552L1.93447 100.811C11.2114 102.636 16.3955 103.552 15.7637 106.787L17.6059 107.15C18.5794 102.165 13.4397 100.846 4.20219 98.9947L5.56896 91.9963L20.0106 94.8364L20.4361 92.6576L4.15224 89.4552Z" fill="white"/>
<path d="M81.5686 6.90352L82.8462 21.6528L83.3026 22.5521L82.7052 22.8574L82.2488 21.9581L71.0834 12.2616L68.9625 13.3455L82.8852 24.9171L84.9236 28.934L79.3945 31.382L80.2464 33.0607L85.8054 30.5974C87.18 29.9705 87.4428 29.0057 86.9104 27.9565L84.8568 23.9096L83.6895 5.81968L81.5686 6.90352Z" fill="white"/>
<path d="M99.4045 2.42242L101.319 9.53468L91.9981 12.0608L90.0839 4.94855L87.948 5.52745L92.2746 21.6031L94.4106 21.0242L92.4876 13.8795L101.808 11.3533L103.731 18.4981L105.867 17.9192L101.54 1.84352L99.4045 2.42242Z" fill="white"/>
<path d="M127.06 16.6854L126.232 0.0544434L121.712 0.280891L114.37 16.6475L113.701 16.681L113.969 15.3203L113.242 0.705271L111.032 0.815978L111.859 17.4469L116.379 17.2205L123.721 0.853882L124.391 0.820334L124.123 2.18102L124.85 16.7961L127.06 16.6854Z" fill="white"/>
<path d="M144.935 19.6568L138.846 9.86573L144.228 4.59169L146.91 5.01864L147.204 3.15808L144.688 2.75749C143.694 2.59936 142.997 2.93112 142.313 3.60567L136.888 8.94089L135.564 8.73005L136.709 1.48718L134.523 1.1393L131.923 17.5853L134.109 17.9331L135.254 10.6903L136.313 10.8589C136.578 10.9011 136.848 10.9101 137.09 10.8805L142.286 19.2351L144.935 19.6568Z" fill="white"/>
<path d="M149.393 16.6201C148.783 18.2585 148.283 21.519 152.742 23.1922C156.384 24.5591 158.914 22.9583 160.379 20.8506L161.007 21.0863L160.106 22.5439L159.754 23.4891C159.343 24.5919 159.736 25.4577 160.835 25.8702L163.472 26.86L164.13 25.0955L161.838 24.2353L164.491 17.1144C165.971 13.1444 164.755 9.20428 160.391 7.56638C155.964 5.90491 152.587 8.04979 151.437 11.1376L153.509 11.9153C154.718 8.66996 157.41 8.45887 159.733 9.33085C162.528 10.3796 163.616 12.548 162.619 15.8011L155.928 13.9723C152.388 13.003 150.298 14.1939 149.393 16.6201ZM151.536 17.2087C152.158 15.5388 153.441 15.266 155.584 15.8546L161.961 17.5655C160.658 21.063 157.293 22.8889 153.588 21.4985C151.579 20.7443 150.796 19.1938 151.536 17.2087Z" fill="white"/>
<path d="M188.18 22.5578L178.441 16.361C173.379 24.3726 170.646 28.887 167.871 27.1217L166.866 28.7126C171.141 31.4327 174.232 27.1061 179.305 19.1409L185.306 22.9599L177.426 35.4318L179.294 36.6208L188.18 22.5578Z" fill="white"/>
<path d="M196.034 36.5828L193.417 34.0242L196.903 30.4339L195.318 28.8846L183.739 40.8121L187.941 44.92C190.774 47.6899 193.824 48.8393 196.958 45.6105C200.093 42.3816 198.868 39.3527 196.034 36.5828ZM186.633 41.012L192.107 35.3736L194.484 37.6975C196.573 39.7397 197.853 41.5071 195.373 44.0612C192.894 46.6154 191.1 45.3781 189.011 43.3359L186.633 41.012Z" fill="white"/>
<path d="M216.823 55.2298L210.728 59.3362L205.347 51.2926L211.442 47.1862L210.209 45.3429L196.432 54.6246L197.665 56.4679L203.788 52.3427L209.17 60.3863L203.047 64.5115L204.28 66.3548L218.057 57.0731L216.823 55.2298Z" fill="white"/>
<path d="M219.622 73.1384L218.321 69.7119L222.989 67.9275L222.201 65.8528L206.695 71.7807L208.783 77.2819C210.191 80.9914 212.475 83.3221 216.673 81.7174C220.871 80.1127 221.03 76.8478 219.622 73.1384ZM212.065 85.9268L212.852 88.0016L228.359 82.0737L227.571 79.9989L212.065 85.9268ZM209.236 73.1848L216.567 70.3825L217.748 73.4947C218.787 76.2296 219.206 78.3732 215.885 79.6426C212.565 80.912 211.456 79.0319 210.418 76.297L209.236 73.1848Z" fill="white"/>
<path d="M213.316 92.5179L213.706 95.1123L221.393 99.3215L215.29 105.623L215.681 108.217L222.638 100.834L223.301 100.733L232.088 105.728L231.697 103.133L224.044 98.9191L230.114 92.6227L229.723 90.0283L222.799 97.4069L222.136 97.5075L213.316 92.5179Z" fill="white"/>
<path d="M198.959 204.072L206.358 195.196C199.108 189.109 195.006 185.797 197.114 183.269L195.674 182.06C192.426 185.956 196.295 189.599 203.499 195.69L198.939 201.16L187.651 191.684L186.232 193.387L198.959 204.072Z" fill="white"/>
<path d="M187.31 203.561C184.345 199.782 179.939 198.082 175.356 201.703C171.273 204.928 171.976 208.868 173.066 211.346L174.805 209.973C173.61 207.363 174.199 205.014 176.517 203.183C179.915 200.498 182.946 201.914 185.198 204.459L174.821 212.658L175.401 213.398C178.574 217.442 182.717 217.937 186.325 215.086C189.934 212.235 190.628 207.79 187.31 203.561ZM186.36 205.939C188.184 208.265 187.771 211.546 185.164 213.606C182.477 215.728 179.545 215.09 177.72 212.764L186.36 205.939Z" fill="white"/>
<path d="M154.382 214.018L165.023 218.396L163.725 225.832L161.299 227.057L162.143 228.74L164.419 227.59C165.317 227.136 165.69 226.458 165.853 225.51L167.151 217.999L168.349 217.394L171.635 223.944L173.611 222.946L166.149 208.073L164.173 209.071L167.459 215.622L166.501 216.106C166.262 216.227 166.037 216.378 165.858 216.544L156.778 212.808L154.382 214.018Z" fill="white"/>
<path d="M134.542 221.407L136.843 220.794L140.614 235.069L142.753 234.5L138.981 220.225L147.341 218.001L151.113 232.276L153.251 231.707L148.999 215.611L134.417 219.491L133.301 215.264L131.162 215.833L132.287 220.092C132.588 221.23 133.408 221.708 134.542 221.407Z" fill="white"/>
<path d="M114.187 220.379L114.938 237.014L119.459 236.808L126.876 220.476L127.546 220.445L127.272 221.805L127.932 236.423L130.142 236.323L129.391 219.688L124.87 219.894L117.453 236.226L116.783 236.256L117.057 234.897L116.397 220.279L114.187 220.379Z" fill="white"/>
<path d="M92.7664 241.596L94.617 241.912C95.0333 239.458 96.1007 238.378 98.381 238.767C100.661 239.157 101.312 240.531 100.896 242.985L102.747 243.301C103.32 239.918 101.67 237.418 98.6961 236.91C95.7218 236.402 93.3402 238.213 92.7664 241.596ZM94.3676 216.925L91.5826 233.34L96.0439 234.103L106.747 219.722L107.408 219.835L106.852 221.105L104.405 235.531L106.586 235.904L109.371 219.488L104.91 218.726L94.2067 233.106L93.5458 232.993L94.1013 231.723L96.5487 217.298L94.3676 216.925Z" fill="white"/>
<path d="M217.822 156.619C214.989 164.01 211.42 170.899 207.233 177.236L205.647 176.254C209.775 170.014 213.293 163.229 216.084 155.948C221.218 142.558 223.412 128.757 222.982 115.265L224.844 115.208C225.281 128.942 223.048 142.989 217.822 156.619Z" fill="white"/>
<path d="M32.4597 175.736C43.6926 192.927 60.0845 206.949 80.4718 215.173L79.803 216.917C59.0379 208.547 42.3428 194.269 30.9035 176.763L32.4597 175.736Z" fill="white"/>
<path d="M22.8486 79.8582C31.178 58.9495 45.5353 42.2146 63.1346 30.8955L61.9228 29.4553C44.095 40.9796 29.5553 57.9739 21.1103 79.187L22.8486 79.8582Z" fill="white"/>
<mask id="path-4-inside-1" fill="white">
<path fill-rule="evenodd" clip-rule="evenodd" d="M79.2402 118.752C86.8555 105.729 100.987 96.981 117.162 96.981C133.337 96.981 147.469 105.729 155.084 118.752C147.469 131.775 133.337 140.523 117.162 140.523C100.987 140.523 86.8555 131.775 79.2402 118.752Z"/>
</mask>
<path d="M79.2402 118.752L78.1634 118.122L77.7952 118.752L78.1634 119.382L79.2402 118.752ZM155.084 118.752L156.161 119.382L156.529 118.752L156.161 118.122L155.084 118.752ZM80.317 119.382C87.7178 106.725 101.448 98.2283 117.162 98.2283V95.7336C100.526 95.7336 85.9932 104.733 78.1634 118.122L80.317 119.382ZM117.162 98.2283C132.876 98.2283 146.606 106.725 154.007 119.382L156.161 118.122C148.331 104.733 133.798 95.7336 117.162 95.7336V98.2283ZM154.007 118.122C146.606 130.778 132.876 139.275 117.162 139.275V141.77C133.798 141.77 148.331 132.771 156.161 119.382L154.007 118.122ZM117.162 139.275C101.448 139.275 87.7178 130.778 80.317 118.122L78.1634 119.382C85.9932 132.771 100.526 141.77 117.162 141.77V139.275Z" fill="white" mask="url(#path-4-inside-1)"/>
<path fill-rule="evenodd" clip-rule="evenodd" d="M117.16 103.292C122.188 106.397 125.566 112.159 125.566 118.754C125.566 125.348 122.189 131.109 117.161 134.214C112.133 131.109 108.755 125.347 108.755 118.753C108.755 112.159 112.132 106.397 117.16 103.292Z" fill="white"/>
<path fill-rule="evenodd" clip-rule="evenodd" d="M117.163 96.9903C117.312 96.9903 117.46 96.9911 117.608 96.9925V52.3386H117.163V96.9903ZM119.974 97.0789C120.123 97.0883 120.271 97.0984 120.419 97.1093L125.036 61.3803L124.594 61.3232L119.974 97.0789ZM122.895 97.3612C123.044 97.3806 123.192 97.4007 123.34 97.4216L134.783 54.7173L134.352 54.602L122.895 97.3612ZM125.781 97.8361C125.93 97.8656 126.078 97.8959 126.226 97.9269L139.619 65.3712L139.207 65.2017L125.781 97.8361ZM128.827 98.5567C128.975 98.5974 129.122 98.6388 129.269 98.681L150.759 61.4597L150.373 61.237L128.827 98.5567ZM131.871 99.5149C132.018 99.5671 132.164 99.6201 132.31 99.6738L152.675 73.0008L152.321 72.7305L131.871 99.5149ZM135.109 100.814C135.254 100.879 135.398 100.945 135.542 101.011L164.445 72.1082L164.13 71.7932L135.109 100.814ZM138.351 102.433C138.492 102.511 138.633 102.59 138.774 102.669L163.308 83.7499L163.035 83.3972L138.351 102.433ZM141.377 104.267C141.515 104.358 141.652 104.45 141.789 104.543L174.686 85.5499L174.463 85.1641L141.377 104.267ZM144.461 106.508C144.593 106.613 144.725 106.719 144.856 106.826L170.434 96.1591L170.263 95.7479L144.461 106.508ZM148.309 109.954C148.43 110.075 148.549 110.197 148.668 110.319L181.321 101.57L181.206 101.139L148.309 109.954ZM151.628 113.697C151.734 113.832 151.84 113.968 151.945 114.104L174.576 111.069L174.517 110.628L151.628 113.697ZM155.085 118.761C154.997 118.91 154.909 119.059 154.82 119.207H183.585V118.761L155.085 118.761ZM152.364 122.866C152.262 123.003 152.159 123.14 152.055 123.276L174.614 126.19L174.671 125.749L152.364 122.866ZM149.02 126.836C148.903 126.959 148.786 127.082 148.668 127.203L181.321 135.953L181.436 135.522L149.02 126.836ZM145.289 130.339C145.16 130.447 145.03 130.554 144.9 130.661L170.562 141.218L170.732 140.806L145.289 130.339ZM142.196 132.7C142.061 132.794 141.925 132.887 141.789 132.979L174.686 151.973L174.909 151.587L142.196 132.7ZM138.885 134.789C138.745 134.87 138.604 134.949 138.463 135.027L163.205 153.919L163.476 153.565L138.885 134.789ZM135.541 136.511C135.397 136.578 135.253 136.643 135.108 136.708L164.129 165.729L164.444 165.414L135.541 136.511ZM132.414 137.81C132.268 137.865 132.121 137.918 131.975 137.97L152.538 164.636L152.891 164.364L132.414 137.81ZM129.27 138.841C129.123 138.883 128.975 138.925 128.827 138.965L150.373 176.284L150.759 176.062L129.27 138.841ZM126.331 139.573C126.183 139.605 126.035 139.635 125.886 139.665L139.466 172.228L139.877 172.057L126.331 139.573ZM123.339 140.101C123.191 140.122 123.043 140.142 122.894 140.161L134.351 182.92L134.782 182.805L123.339 140.101ZM120.52 140.406C120.372 140.417 120.223 140.427 120.075 140.437L124.867 176.177L125.309 176.117L120.52 140.406ZM117.608 140.53C117.46 140.531 117.311 140.532 117.163 140.532V185.184H117.608V140.53ZM114.817 140.47C114.668 140.463 114.519 140.454 114.371 140.445L109.75 176.213L110.191 176.27L114.817 140.47ZM111.873 140.217C111.724 140.199 111.576 140.18 111.427 140.161L99.9695 182.921L100.4 183.036L111.873 140.217ZM109.009 139.776C108.86 139.748 108.711 139.719 108.563 139.69L95.1327 172.335L95.5447 172.504L109.009 139.776ZM105.942 139.085C105.793 139.046 105.645 139.006 105.497 138.965L83.9506 176.284L84.3364 176.507L105.942 139.085ZM102.918 138.169C102.77 138.119 102.623 138.067 102.476 138.015L82.0207 164.806L82.3748 165.076L102.918 138.169ZM99.6524 136.901C99.5064 136.837 99.3607 136.773 99.2155 136.708L70.1941 165.729L70.5092 166.044L99.6524 136.901ZM96.419 135.331C96.276 135.255 96.1334 135.177 95.9913 135.099L71.2996 154.14L71.5717 154.493L96.419 135.331ZM92.5363 132.979C92.4001 132.887 92.2645 132.793 92.1295 132.699L59.4159 151.587L59.6386 151.973L92.5363 132.979ZM88.85 130.183C88.7228 130.075 88.5963 129.967 88.4704 129.858L63.3434 140.337L63.5149 140.748L88.85 130.183ZM85.6573 127.203C85.5393 127.081 85.4219 126.959 85.3053 126.836L52.8872 135.522L53.0025 135.953L85.6573 127.203ZM82.3901 123.431C82.2857 123.296 82.1821 123.16 82.0792 123.024L59.7003 126.025L59.7595 126.466L82.3901 123.431ZM79.505 119.207C79.4162 119.059 79.3281 118.91 79.241 118.761L50.7402 118.761V119.207H79.505ZM82.2619 114.258C82.3665 114.121 82.4718 113.985 82.5778 113.85L59.7812 110.904L59.7242 111.346L82.2619 114.258ZM85.6572 110.32L53.0025 101.57L53.1178 101.139L86.0157 109.954C85.8955 110.075 85.776 110.197 85.6572 110.32ZM88.6424 107.516L63.4293 97.1436L63.5988 96.7316L89.0256 107.192C88.8972 107.299 88.7695 107.407 88.6424 107.516ZM114.707 97.0578C114.558 97.0661 114.41 97.075 114.261 97.0847L109.47 61.3597L109.912 61.3005L114.707 97.0578ZM111.872 97.3058L100.399 54.486L99.9686 54.6013L111.426 97.3618C111.575 97.3424 111.723 97.3237 111.872 97.3058ZM108.896 97.7675L95.2881 65.137L94.8769 65.3084L108.45 97.8549C108.598 97.825 108.747 97.7959 108.896 97.7675ZM105.943 98.4373L84.3364 61.0142L83.9506 61.237L105.497 98.5572C105.645 98.5164 105.794 98.4765 105.943 98.4373ZM102.791 99.3969L82.1481 72.6281L81.7953 72.9002L102.349 99.5528C102.496 99.5001 102.643 99.4481 102.791 99.3969ZM99.6517 100.622L70.508 71.4782L70.193 71.7932L99.2148 100.815C99.3601 100.75 99.5057 100.686 99.6517 100.622ZM96.2847 102.263L71.4006 83.2641L71.1303 83.6182L95.8576 102.498C95.9995 102.419 96.1418 102.341 96.2847 102.263ZM92.9484 104.267L59.8614 85.1641L59.6386 85.5499L92.5362 104.543C92.6731 104.45 92.8105 104.358 92.9484 104.267Z" fill="white"/>
<path fill-rule="evenodd" clip-rule="evenodd" d="M116.719 51.894H118.055V97.4434L117.605 97.4389C117.458 97.4375 117.311 97.4367 117.164 97.4367H116.719V51.894ZM100.715 53.9413L112.437 97.6878L111.927 97.7491C111.779 97.7668 111.632 97.7852 111.485 97.8044L111.098 97.8549L99.4242 54.2872L100.715 53.9413ZM134.039 54.0573L135.329 54.4032L123.67 97.9186L123.279 97.8636C123.133 97.843 122.986 97.8231 122.839 97.8039L122.334 97.7381L134.039 54.0573ZM84.5006 60.4066L106.621 98.7204L106.057 98.869C105.91 98.9078 105.763 98.9473 105.617 98.9876L105.285 99.0789L83.3432 61.0748L84.5006 60.4066ZM150.211 60.6294L151.369 61.2976L129.482 99.2059L129.148 99.1102C129.002 99.0684 128.856 99.0275 128.71 98.9872L128.154 98.8344L150.211 60.6294ZM110.295 60.8007L115.214 97.4771L114.733 97.5036C114.585 97.5117 114.438 97.5206 114.291 97.5302L113.876 97.5572L108.971 60.9783L110.295 60.8007ZM124.21 60.8252L125.536 60.9965L120.808 97.5853L120.388 97.5545C120.241 97.5437 120.094 97.5337 119.947 97.5244L119.472 97.4944L124.21 60.8252ZM95.529 64.5552L109.52 98.1033L108.981 98.206C108.833 98.2341 108.686 98.263 108.539 98.2926L108.181 98.3647L94.2954 65.0697L95.529 64.5552ZM138.966 64.6212L140.202 65.1297L126.498 98.4399L126.135 98.3638C125.989 98.3331 125.842 98.3031 125.695 98.2739L125.164 98.1682L138.966 64.6212ZM70.5092 70.8491L100.43 100.77L99.8308 101.031C99.6862 101.094 99.5421 101.158 99.3983 101.222L99.1181 101.348L69.5641 71.7942L70.5092 70.8491ZM164.131 71.1641L165.076 72.1092L135.638 101.547L135.356 101.417C135.214 101.351 135.071 101.286 134.928 101.222L134.338 100.957L164.131 71.1641ZM82.23 72.0042L103.523 99.6161L102.938 99.8188C102.792 99.8695 102.646 99.9209 102.5 99.9731L102.195 100.082L81.1716 72.8204L82.23 72.0042ZM152.239 72.107L153.301 72.918L132.466 100.206L132.158 100.093C132.013 100.04 131.868 99.9873 131.723 99.9356L131.147 99.731L152.239 72.107ZM71.318 82.6406L97.1035 102.328L96.498 102.656C96.3566 102.733 96.2157 102.81 96.0753 102.888L95.8203 103.03L70.507 83.7029L71.318 82.6406ZM163.117 82.7732L163.934 83.8316L138.813 103.204L138.555 103.058C138.416 102.979 138.277 102.901 138.137 102.824L137.542 102.496L163.117 82.7732ZM59.6995 84.5565L93.7955 104.242L93.1956 104.639C93.0591 104.73 92.9231 104.821 92.7876 104.913L92.5565 105.07L59.0312 85.7139L59.6995 84.5565ZM174.627 84.5565L175.296 85.7139L141.771 105.069L141.54 104.913C141.404 104.821 141.268 104.729 141.132 104.639L140.532 104.242L174.627 84.5565ZM170.504 95.1662L171.018 96.3997L144.783 107.341L144.576 107.173C144.446 107.067 144.316 106.962 144.185 106.858L143.594 106.388L170.504 95.1662ZM63.3574 96.151L89.8785 107.062L89.3125 107.535C89.1854 107.641 89.0589 107.748 88.9331 107.856L88.726 108.033L62.849 97.387L63.3574 96.151ZM52.8039 100.595L86.8746 109.724L86.333 110.269C86.214 110.389 86.0957 110.51 85.9781 110.631L85.7959 110.819L52.458 101.886L52.8039 100.595ZM181.522 100.595L181.868 101.886L148.532 110.818L148.349 110.63C148.232 110.509 148.113 110.389 147.994 110.269L147.453 109.724L181.522 100.595ZM174.901 110.128L175.078 111.452L151.751 114.581L151.594 114.377C151.49 114.242 151.385 114.108 151.279 113.974L150.795 113.36L174.901 110.128ZM59.3977 110.406L83.4122 113.509L82.9298 114.125C82.8248 114.259 82.7205 114.394 82.6171 114.529L82.461 114.734L59.2264 111.732L59.3977 110.406ZM79.4977 118.317L79.6267 118.537C79.713 118.685 79.8001 118.832 79.8881 118.978L80.2935 119.653H50.2959V118.317L79.4977 118.317ZM154.83 118.317L184.032 118.317V119.653H154.034L154.44 118.978C154.528 118.832 154.615 118.685 154.701 118.537L154.83 118.317ZM152.164 122.392L175.171 125.365L175 126.69L151.233 123.619L151.702 123.006C151.805 122.871 151.907 122.736 152.008 122.601L152.164 122.392ZM82.2794 122.548L82.4362 122.756C82.538 122.892 82.6406 123.026 82.744 123.16L83.2156 123.771L59.3783 126.968L59.2007 125.643L82.2794 122.548ZM85.4473 126.338L85.6297 126.53C85.7452 126.652 85.8613 126.773 85.9781 126.893L86.5063 127.438L52.6886 136.499L52.3427 135.208L85.4473 126.338ZM148.88 126.338L181.983 135.208L181.637 136.499L147.821 127.438L148.349 126.894C148.466 126.773 148.582 126.652 148.698 126.531L148.88 126.338ZM88.5544 129.342L88.7628 129.522C88.8875 129.63 89.0127 129.737 89.1386 129.843L89.6958 130.314L63.2763 141.332L62.7619 140.098L88.5544 129.342ZM145.211 129.826L171.314 140.564L170.806 141.8L144.04 130.789L144.62 130.316C144.749 130.211 144.877 130.105 145.005 129.998L145.211 129.826ZM92.1528 132.173L92.385 132.335C92.5187 132.428 92.6529 132.52 92.7877 132.611L93.3756 133.01L59.4767 152.582L58.8085 151.425L92.1528 132.173ZM142.175 132.174L175.518 151.425L174.85 152.582L140.952 133.011L141.54 132.612C141.674 132.52 141.809 132.428 141.942 132.335L142.175 132.174ZM138.922 134.257L164.101 153.482L163.29 154.544L137.653 134.97L138.247 134.639C138.387 134.561 138.527 134.483 138.666 134.403L138.922 134.257ZM95.9518 134.568L96.2077 134.709C96.3483 134.787 96.4894 134.864 96.631 134.94L97.2367 135.265L71.4921 155.118L70.676 154.06L95.9518 134.568ZM135.638 135.978L165.075 165.415L164.13 166.36L134.337 136.567L134.927 136.303C135.07 136.239 135.213 136.174 135.356 136.108L135.638 135.978ZM99.1188 136.176L99.399 136.302C99.5427 136.367 99.6869 136.43 99.8315 136.493L100.431 136.754L70.5103 166.675L69.5653 165.73L99.1188 136.176ZM132.568 137.28L153.517 164.446L152.458 165.262L131.249 137.759L131.825 137.552C131.971 137.5 132.116 137.447 132.26 137.394L132.568 137.28ZM102.32 137.487L102.626 137.596C102.772 137.648 102.918 137.699 103.064 137.749L103.649 137.949L82.4597 165.701L81.3974 164.89L102.32 137.487ZM129.483 138.318L151.369 176.226L150.211 176.894L128.154 138.69L128.71 138.537C128.857 138.497 129.003 138.456 129.148 138.414L129.483 138.318ZM105.284 138.445L105.616 138.536C105.763 138.577 105.91 138.616 106.057 138.655L106.621 138.804L84.5006 177.117L83.3432 176.448L105.284 138.445ZM126.601 139.062L140.461 172.297L139.228 172.812L125.267 139.337L125.799 139.229C125.946 139.2 126.093 139.17 126.239 139.138L126.601 139.062ZM108.291 139.183L108.651 139.254C108.798 139.283 108.945 139.312 109.092 139.339L109.63 139.44L95.7884 173.086L94.5524 172.578L108.291 139.183ZM123.669 139.606L135.329 183.121L134.038 183.466L122.334 139.786L122.838 139.72C122.985 139.701 123.132 139.681 123.278 139.661L123.669 139.606ZM111.099 139.669L111.486 139.72C111.633 139.739 111.78 139.758 111.928 139.775L112.438 139.837L100.716 183.582L99.4251 183.237L111.099 139.669ZM120.907 139.931L125.811 176.501L124.486 176.678L119.571 140.025L120.047 139.993C120.194 139.984 120.341 139.973 120.488 139.962L120.907 139.931ZM113.984 139.975L114.4 140.001C114.547 140.01 114.694 140.019 114.841 140.026L115.321 140.052L110.577 176.77L109.252 176.599L113.984 139.975ZM118.055 140.081V185.63H116.718V140.087H117.164C117.311 140.087 117.458 140.087 117.605 140.085L118.055 140.081Z" fill="white"/>
</svg>
