<svg width="266" height="265" viewBox="0 0 266 265" fill="none" xmlns="http://www.w3.org/2000/svg">
<path d="M123.845 250.75C124.449 246.585 121.936 242.876 117.368 242.214C112.829 241.556 109.395 244.402 108.791 248.568C108.191 252.705 110.675 256.409 115.215 257.067C119.782 257.729 123.245 254.887 123.845 250.75ZM121.489 250.409C121.06 253.368 118.896 255.548 115.506 255.056C112.145 254.569 110.689 251.864 111.118 248.905C111.551 245.918 113.715 243.738 117.076 244.225C120.466 244.717 121.922 247.421 121.489 250.409Z" fill="white"/>
<path d="M86.5661 249.286L99.1269 253.555L99.7808 251.631L94.6135 249.875L98.6022 238.139L96.3484 237.373L92.3597 249.109L87.22 247.362L86.5661 249.286Z" fill="white"/>
<path d="M74.5117 227.129L76.3631 236.815L70.9814 239.314L68.9139 238.194L67.946 239.981L69.937 241.06C70.7793 241.516 71.5068 241.514 72.3119 241.125L78.0104 238.467L79.057 239.034L76.1395 244.419L78.2325 245.553L85.1045 232.867L83.0114 231.734L80.0663 237.17L79.173 236.687C78.9432 236.562 78.7252 236.477 78.4934 236.417L76.9621 228.457L74.5117 227.129Z" fill="white"/>
<path d="M60.0871 234.891L72.4827 219.565L70.6319 218.068L65.9768 223.824L65.2479 225.325L64.7287 224.905C65.6604 222.784 65.3026 220.18 62.7296 218.099C59.4794 215.47 55.354 216.277 52.6704 219.595C49.9686 222.936 50.0413 227.139 53.2914 229.768C55.8645 231.849 58.486 231.654 60.3839 230.277L60.903 230.697L59.569 231.746L58.2364 233.394L60.0871 234.891ZM62.782 227.774C60.354 230.776 57.4132 230.488 55.111 228.626C52.7862 226.745 52.1297 224.049 54.5212 221.092C56.8944 218.158 59.6686 218.236 61.9934 220.117C64.2956 221.979 65.1918 224.794 62.782 227.774Z" fill="white"/>
<path d="M47.0597 214.084C50.3001 211.397 50.9207 206.961 47.9747 203.408C45.0473 199.877 40.5913 199.687 37.3509 202.374C34.1329 205.042 33.4937 209.456 36.4212 212.987C39.3672 216.54 43.8417 216.752 47.0597 214.084ZM45.5404 212.252C43.2386 214.16 40.1718 214.327 37.9855 211.69C35.8177 209.075 36.5499 206.093 38.8517 204.184C41.1758 202.257 44.2426 202.09 46.4104 204.705C48.5967 207.342 47.8645 210.325 45.5404 212.252Z" fill="white"/>
<path d="M14.7357 191.984L15.6676 193.691C17.5276 192.675 18.7417 192.839 19.6319 194.47C20.5221 196.101 20.0175 197.236 18.1575 198.252L19.0894 199.959C21.6883 198.54 22.6512 196.063 21.2881 193.566C19.9388 191.094 17.3346 190.565 14.7357 191.984ZM32.3366 179.696L19.6731 186.609L21.9543 190.788L37.1058 189.826L37.4257 190.412L35.9964 190.762L25.1675 196.674L26.3081 198.763L38.9715 191.85L36.6764 187.646L21.5504 188.594L21.2305 188.008L22.6089 187.685L33.4633 181.76L32.3366 179.696Z" fill="white"/>
<path d="M25.3398 160.563L24.921 158.22L12.776 160.39L11.4707 161.007L11.3532 160.349L24.2623 154.533L23.4248 149.847L9.30038 148.862L9.17782 148.176L10.621 148.331L22.766 146.16L22.3473 143.817L8.14473 146.355L8.98732 151.07L23.1301 151.993L23.2475 152.65L10.2997 158.414L11.1372 163.101L25.3398 160.563Z" fill="white"/>
<path d="M14.5653 136.841C18.7153 136.943 22.3093 134.853 22.4363 129.688C22.5491 125.102 19.4867 123.285 17.2657 122.678L17.2072 125.058C19.3999 125.635 20.5215 127.259 20.4629 129.639C20.3752 133.209 17.9924 134.457 15.2609 134.535L15.5414 123.13L14.6127 123.107C10.1726 122.998 7.52409 125.604 7.42418 129.667C7.32355 133.759 9.92206 136.726 14.5653 136.841ZM13.4616 134.49C11.14 134.433 9.35665 132.56 9.42659 129.716C9.49725 126.843 11.3634 125.35 13.685 125.407L13.4616 134.49Z" fill="white"/>
<path d="M11.21 102.821L17.2597 104.1L15.5793 112.052L9.52963 110.774L9.03752 113.103L23.1534 116.085L23.6455 113.756L17.5674 112.472L19.2478 104.52L25.3259 105.804L25.812 103.503L11.6961 100.521L11.21 102.821Z" fill="white"/>
<path d="M18.3581 81.7782L16.6566 86.0376C15.3321 89.3534 15.5974 91.7414 18.3201 92.829C20.6385 93.7551 22.1798 92.8703 23.3971 90.762L26.5956 94.728L25.7233 96.9116L27.5565 97.6439L28.3533 95.649C28.6979 94.7863 28.579 93.9885 28.0773 93.288L24.3664 88.6484L25.0341 86.977L30.884 89.3138L31.7562 87.1302L18.3581 81.7782ZM23.2818 86.2771L22.528 88.1641C21.6665 90.3208 20.8206 91.2645 19.2031 90.6184C17.5857 89.9723 17.6228 88.7055 18.4843 86.5489L19.2381 84.6618L23.2818 86.2771Z" fill="white"/>
<path d="M36.0237 64.7148C39.3066 67.3493 43.7772 67.0658 46.666 63.466C49.5366 59.8887 48.8269 55.4855 45.544 52.8511C42.2837 50.2348 37.8313 50.4956 34.9607 54.0728C32.0719 57.6727 32.7634 62.0985 36.0237 64.7148ZM37.5135 62.8583C35.1815 60.9869 34.4017 58.0162 36.5456 55.3446C38.6713 52.6957 41.7404 52.8136 44.0724 54.685C46.427 56.5745 47.2068 59.5452 45.0811 62.1942C42.9372 64.8658 39.8681 64.7478 37.5135 62.8583Z" fill="white"/>
<path d="M56.204 33.3374L46.151 41.9939L47.477 43.5337L51.6125 39.9726L59.7008 49.3656L61.5046 47.8123L53.4163 38.4194L57.5299 34.8772L56.204 33.3374Z" fill="white"/>
<path d="M81.4138 34.1951L72.1285 30.8747L72.7062 24.9693L74.7205 23.7562L73.6722 22.0155L71.7325 23.1836C70.9118 23.6779 70.5445 24.3057 70.4713 25.197L69.8692 31.456L68.8496 32.07L65.6896 26.8229L63.6504 28.0509L71.0937 40.4102L73.1328 39.1822L69.9429 33.8853L70.8132 33.3612C71.0371 33.2264 71.221 33.0817 71.39 32.9122L79.0265 35.6328L81.4138 34.1951Z" fill="white"/>
<path d="M82.0459 17.8275L88.9602 36.2858L91.1893 35.4508L88.5926 28.5187L87.669 27.1288L88.2942 26.8945C89.6492 28.7739 92.0748 29.7873 95.1738 28.6264C99.0884 27.16 100.486 23.1955 98.9893 19.1994C97.4822 15.1761 93.8237 13.1056 89.9091 14.572C86.8101 15.7328 85.6473 18.0904 85.8707 20.4246L85.2454 20.6588L85.0184 18.9769L84.275 16.9924L82.0459 17.8275ZM86.8106 23.7614C85.4563 20.1459 87.1967 17.758 89.9695 16.7193C92.7695 15.6704 95.4262 16.4732 96.7602 20.0344C98.084 23.5684 96.6086 25.919 93.8085 26.9679C91.0357 28.0065 88.1548 27.3498 86.8106 23.7614Z" fill="white"/>
<path d="M106.586 17.162C107.256 21.3175 110.764 24.1037 115.321 23.3686C119.849 22.6381 122.273 18.8947 121.603 14.7392C120.937 10.6124 117.458 7.82152 112.93 8.55204C108.374 9.28718 105.92 13.0351 106.586 17.162ZM108.936 16.7828C108.46 13.831 109.872 11.1037 113.254 10.5581C116.607 10.0172 118.805 12.1619 119.282 15.1137C119.763 18.0942 118.35 20.8215 114.997 21.3625C111.615 21.908 109.417 19.7633 108.936 16.7828Z" fill="white"/>
<path d="M142.033 0.525543L140.089 0.462181C140.02 2.58019 139.263 3.54302 137.406 3.4825C135.549 3.42197 134.827 2.41091 134.896 0.292903L132.952 0.229541C132.855 3.18895 134.501 5.27572 137.344 5.3684C140.159 5.46013 141.937 3.48495 142.033 0.525543ZM143.688 21.9273L144.158 7.50744L139.4 7.35235L132.539 20.8959L131.872 20.8742L132.296 19.4648L132.698 7.13389L130.318 7.05634L129.848 21.4762L134.636 21.6323L141.495 8.11771L142.162 8.13946L141.741 9.49082L141.338 21.8507L143.688 21.9273Z" fill="white"/>
<path d="M163.725 25.6086L165.957 26.437L170.25 14.8707L170.382 13.4331L171.008 13.6655L169.468 27.7402L173.931 29.397L181.948 17.7267L182.601 17.9691L181.735 19.134L177.441 30.7002L179.673 31.5286L184.694 18.003L180.204 16.3361L172.231 28.0538L171.605 27.8214L173.209 13.7397L168.746 12.0829L163.725 25.6086Z" fill="white"/>
<path d="M189.633 28.3642C187.439 31.8882 187.415 36.0454 191.802 38.7765C195.696 41.2006 198.816 39.4844 200.465 37.8784L198.445 36.6203C196.835 38.217 194.866 38.3588 192.845 37.1007C189.814 35.2135 189.948 32.527 191.267 30.1338L200.952 36.1636L201.443 35.375C203.79 31.6046 202.889 27.9998 199.438 25.8518C195.964 23.6884 192.088 24.4213 189.633 28.3642ZM192.218 28.6059C193.446 26.6345 195.965 26.0485 198.38 27.5522C200.819 29.0711 201.159 31.4368 199.932 33.4083L192.218 28.6059Z" fill="white"/>
<path d="M220.649 42.7378L216.477 47.3018L210.477 41.8179L214.649 37.254L212.892 35.648L203.158 46.2972L204.915 47.9032L209.107 43.3178L215.106 48.8017L210.915 53.387L212.65 54.9734L222.384 44.3242L220.649 42.7378Z" fill="white"/>
<path d="M235.153 59.5768L232.346 55.9491C230.162 53.125 227.969 52.1417 225.65 53.9358C223.676 55.4634 223.656 57.2405 224.855 59.3593L219.814 60.1026L218.376 58.2428L216.814 59.4507L218.129 61.1498C218.697 61.8845 219.445 62.1868 220.303 62.1101L226.184 61.2672L227.285 62.6907L222.303 66.5454L223.742 68.4051L235.153 59.5768ZM228.778 61.5361L227.534 59.9289C226.113 58.0921 225.729 56.8843 227.107 55.8185C228.485 54.7527 229.557 55.4276 230.978 57.2644L232.222 58.8716L228.778 61.5361Z" fill="white"/>
<path d="M240.891 83.4581C236.954 84.9498 234.93 88.9457 236.566 93.2618C238.191 97.5507 242.345 99.1739 246.281 97.6822C250.19 96.2007 252.225 92.232 250.6 87.943C248.964 83.6269 244.799 81.9767 240.891 83.4581ZM241.734 85.684C244.53 84.6244 247.486 85.46 248.699 88.6632C249.903 91.8391 248.244 94.4238 245.448 95.4834C242.625 96.5533 239.669 95.7176 238.466 92.5417C237.252 89.3385 238.911 86.7539 241.734 85.684Z" fill="white"/>
<path d="M257.685 116.771L255.328 103.715L253.328 104.076L254.298 109.447L242.1 111.649L242.523 113.992L254.721 111.79L255.685 117.132L257.685 116.771Z" fill="white"/>
<path d="M244.152 138.057L251.726 131.741L256.521 135.236L256.544 137.587L258.576 137.567L258.554 135.303C258.544 134.345 258.19 133.71 257.459 133.195L252.371 129.5L252.36 128.309L258.485 128.25L258.461 125.869L244.034 126.01L244.058 128.391L250.241 128.33L250.251 129.346C250.253 129.607 250.284 129.839 250.345 130.071L244.125 135.27L244.152 138.057Z" fill="white"/>
<path d="M257.935 146.909L238.521 143.499L238.109 145.843L245.4 147.124L247.067 147.033L246.951 147.691C244.644 147.905 242.54 149.48 241.968 152.74C241.244 156.857 243.951 160.073 248.154 160.812C252.386 161.555 256.026 159.453 256.749 155.336C257.322 152.077 255.881 149.878 253.756 148.886L253.872 148.229L255.436 148.886L257.523 149.253L257.935 146.909ZM250.404 148.003C254.207 148.67 255.381 151.382 254.869 154.298C254.351 157.243 252.311 159.125 248.566 158.467C244.849 157.814 243.572 155.35 244.09 152.405C244.602 149.489 246.63 147.34 250.404 148.003Z" fill="white"/>
<path d="M246.054 168.391C242.133 166.86 237.952 168.468 236.273 172.767C234.604 177.04 236.599 181.029 240.52 182.56C244.414 184.081 248.584 182.499 250.253 178.227C251.932 173.928 249.947 169.912 246.054 168.391ZM245.188 170.608C247.973 171.696 249.606 174.297 248.36 177.488C247.124 180.652 244.16 181.457 241.375 180.37C238.563 179.271 236.93 176.67 238.166 173.507C239.412 170.316 242.375 169.51 245.188 170.608Z" fill="white"/>
<path d="M242.399 207.377L243.44 205.734C241.65 204.6 241.205 203.459 242.2 201.89C243.194 200.32 244.432 200.211 246.222 201.345L247.263 199.703C244.762 198.118 242.129 198.476 240.606 200.879C239.098 203.258 239.898 205.792 242.399 207.377ZM223.118 197.942L235.305 205.665L237.853 201.644L229.665 188.859L230.022 188.295L231.022 189.375L241.443 195.98L242.717 193.969L230.531 186.246L227.967 190.292L236.13 203.061L235.773 203.625L234.822 202.576L224.377 195.956L223.118 197.942Z" fill="white"/>
<path d="M209.777 213.338L207.931 214.841L215.718 224.41L216.89 225.253L216.372 225.674L205.027 217.204L201.334 220.209L207.321 233.04L206.781 233.48L206.216 232.142L198.429 222.573L196.583 224.075L205.689 235.266L209.404 232.243L203.354 219.426L203.872 219.005L215.191 227.534L218.884 224.529L209.777 213.338Z" fill="white"/>
<path d="M194.255 234.264C192.332 230.585 188.762 228.455 184.182 230.848C180.117 232.973 180.013 236.533 180.559 238.769L182.669 237.666C182.11 235.469 182.987 233.7 185.097 232.598C188.261 230.944 190.508 232.422 191.901 234.774L181.79 240.058L182.22 240.882C184.278 244.818 187.841 245.87 191.443 243.988C195.071 242.092 196.406 238.38 194.255 234.264ZM192.734 236.369C193.81 238.427 193.037 240.895 190.515 242.213C187.968 243.544 185.758 242.636 184.682 240.578L192.734 236.369Z" fill="white"/>
<path d="M166.129 253.694L164.313 247.783L172.083 245.397L173.898 251.307L176.174 250.609L171.938 236.817L169.663 237.516L171.486 243.454L163.717 245.841L161.893 239.902L159.645 240.593L163.881 254.384L166.129 253.694Z" fill="white"/>
<path d="M144.259 257.645L148.809 257.068C152.351 256.619 154.311 255.229 153.942 252.32C153.628 249.844 152.106 248.925 149.672 248.882L151.59 244.162L153.923 243.866L153.674 241.908L151.543 242.178C150.622 242.295 149.982 242.786 149.612 243.564L147.354 249.059L145.568 249.286L144.775 243.037L142.443 243.332L144.259 257.645ZM145.806 251.158L147.822 250.902C150.126 250.61 151.361 250.892 151.58 252.62C151.799 254.348 150.674 254.929 148.37 255.222L146.354 255.477L145.806 251.158Z" fill="white"/>
</svg>
